<svg width="162" height="32" viewBox="0 0 162 32" fill="none" xmlns="http://www.w3.org/2000/svg">
<path d="M30.253 8.03727H20.5575L20.5534 8.03653H1.66837C0.829074 8.03653 0.148926 8.7103 0.148926 9.54136V11.3191C0.148926 11.3325 0.159811 11.3433 0.173324 11.3433H4.93399C4.9475 11.3433 4.95839 11.3541 4.95839 11.3675V23.9382C4.95839 23.9516 4.96927 23.9624 4.98278 23.9624H8.53179C8.54531 23.9624 8.55619 23.9516 8.55619 23.9382V11.3678C8.55619 11.3544 8.56708 11.3437 8.58059 11.3437H12.7715C11.8345 12.6332 11.2949 14.2219 11.2719 15.818C11.1695 20.3339 14.8305 23.9631 19.3706 23.9631C23.9369 23.9631 27.5136 20.4563 27.5136 15.9794C27.5136 14.2191 26.987 12.6272 26.0723 11.3388L30.2534 11.3444C33.1297 11.3444 35.0621 13.2069 35.0621 15.9794C35.0621 18.7518 33.1297 20.6571 30.2534 20.6571C28.9697 20.6571 27.9288 21.6882 27.9288 22.9599V23.9638H30.2534C35.1875 23.9638 38.7684 20.624 38.7684 16.0221C38.7684 11.4203 35.1871 8.03727 30.253 8.03727ZM19.4123 20.6578C16.8614 20.6578 14.9376 18.6466 14.9376 15.9794C14.9376 13.4977 16.9889 11.2769 19.5189 11.344C19.6843 11.3509 19.8488 11.3645 20.0129 11.3857L20.0177 11.3864C22.2402 11.695 23.8453 13.584 23.8453 16.0206C23.8453 18.6646 21.9309 20.6578 19.4123 20.6578Z" fill="#FFBC00"/>
<path style="mix-blend-mode:multiply" d="M19.3585 11.3418H19.3915C19.4339 11.3418 19.4763 11.3429 19.5184 11.344C19.5811 11.3466 19.6667 11.3507 19.7466 11.3567C19.804 11.3611 19.8607 11.3667 19.917 11.3734C19.944 11.3768 19.9865 11.3823 20.0124 11.3857L20.0172 11.3864C22.2397 11.695 23.8448 13.584 23.8448 16.0206C23.8448 18.6466 21.9646 20.6307 19.4632 20.6578H19.4531C19.4531 20.6578 19.4504 20.6578 19.4489 20.6578C19.4366 20.6578 19.4242 20.6582 19.4118 20.6582C19.3029 20.6582 19.1956 20.6541 19.0894 20.647C19.0894 21.9589 19.0894 23.138 19.0901 23.9583C19.1832 23.9612 19.2763 23.9631 19.3701 23.9631C23.9364 23.9631 27.5131 20.4563 27.5131 15.9794C27.5131 14.2191 26.9865 12.6272 26.0718 11.3388" fill="url(#paint0_linear_0_1)"/>
<path style="mix-blend-mode:multiply" d="M18.9296 8.03653H1.66653C0.827609 8.03653 0.147461 8.7103 0.147461 9.54136V11.3191C0.147461 11.3325 4.2246 11.3433 4.23811 11.3433H12.7715C14.1476 9.44059 16.361 8.18006 18.9296 8.03653Z" fill="url(#paint1_linear_0_1)"/>
<path d="M53.1387 14.9553C49.6481 14.213 49.0099 13.4035 49.0099 12.0753C49.0099 10.747 50.3144 9.71105 52.182 9.71105C53.8065 9.71105 55.2142 10.2371 56.6087 11.3651L56.7502 11.4791L57.9958 9.8411L57.8631 9.73443C56.1414 8.3653 54.4565 7.78082 52.2263 7.78082C49.1293 7.78082 46.8828 9.6526 46.8828 12.2316C46.8828 15.1554 49.0482 16.2221 52.3029 16.9235C55.6417 17.6219 56.2519 18.4183 56.2519 19.7363C56.2519 21.2311 54.9135 22.2349 52.9235 22.2349C50.9335 22.2349 49.3607 21.6095 47.6493 20.0753L47.5151 19.954L46.187 21.5131L46.3153 21.6256C48.2713 23.3571 50.3513 24.1637 52.8586 24.1637C56.1753 24.1637 58.4041 22.3123 58.4041 19.5565C58.4041 17.1266 56.8313 15.7516 53.1431 14.9538" fill="white"/>
<path d="M63.6267 9.97699H68.9053V23.9401H71.0545V9.97699H76.3346V8.00292H63.6267V9.97699Z" fill="white"/>
<path d="M92.884 17.2406C92.884 20.3996 91.2198 22.2115 88.3188 22.2115C85.4179 22.2115 83.6873 20.3587 83.6873 17.1295V8.00146H81.5602V17.2406C81.5602 21.5233 84.1325 24.1856 88.2746 24.1856C92.4167 24.1856 95.0111 21.5394 95.0111 17.1076V8.00292H92.884V17.242V17.2406Z" fill="white"/>
<path d="M105.872 8.00292H100.237V23.9416H105.872C110.816 23.9416 114.405 20.5808 114.405 15.9503C114.405 11.3198 110.816 8.00292 105.872 8.00292ZM112.212 15.9942C112.212 19.5112 109.604 21.9675 105.872 21.9675H102.364V9.97845H105.872C109.604 9.97845 112.212 12.4522 112.212 15.9956" fill="white"/>
<path d="M121.76 8.00292H119.632V23.9416H121.76V8.00292Z" fill="white"/>
<path d="M135.204 7.73553C130.595 7.73553 126.985 11.3637 126.985 15.9942C126.985 20.6247 130.499 24.209 135.159 24.209C139.818 24.209 143.378 20.5808 143.378 15.9503C143.378 11.3198 139.864 7.73553 135.204 7.73553ZM141.185 15.9942C141.185 19.5507 138.614 22.2334 135.204 22.2334C131.795 22.2334 129.18 19.5317 129.18 15.9489C129.18 12.366 131.751 9.70959 135.16 9.70959C138.57 9.70959 141.186 12.4113 141.186 15.9942" fill="white"/>
<path d="M155.56 14.9553C152.069 14.213 151.431 13.4035 151.431 12.0753C151.431 10.747 152.736 9.71105 154.603 9.71105C156.228 9.71105 157.635 10.2371 159.03 11.3651L159.171 11.4791L160.417 9.8411L160.284 9.73443C158.563 8.3653 156.878 7.78082 154.647 7.78082C151.55 7.78082 149.304 9.6526 149.304 12.2316C149.304 15.1554 151.469 16.2221 154.724 16.9235C158.063 17.6219 158.673 18.4183 158.673 19.7363C158.673 21.2311 157.336 22.2349 155.345 22.2349C153.353 22.2349 151.782 21.6095 150.07 20.0753L149.936 19.954L148.608 21.5131L148.736 21.6256C150.693 23.3571 152.772 24.1637 155.28 24.1637C158.596 24.1637 160.825 22.3123 160.825 19.5565C160.825 17.1266 159.251 15.7516 155.564 14.9538" fill="white"/>
<path d="M161.904 30.6192H0.143066V32H161.904V30.6192Z" fill="white"/>
<path d="M161.904 0.0336075H0.143066V1.41443H161.904V0.0336075Z" fill="white"/>
<defs>
<linearGradient id="paint0_linear_0_1" x1="19.9999" y1="22.5" x2="23.3012" y2="10.2564" gradientUnits="userSpaceOnUse">
<stop stop-color="white" stop-opacity="0"/>
<stop offset="0.38" stop-color="#C0BFBF" stop-opacity="0.28"/>
<stop offset="1" stop-color="#231F20"/>
</linearGradient>
<linearGradient id="paint1_linear_0_1" x1="6.09463" y1="6.40899" x2="13.3179" y2="13.3958" gradientUnits="userSpaceOnUse">
<stop offset="0.54" stop-color="white" stop-opacity="0"/>
<stop offset="0.78" stop-color="#7B7879" stop-opacity="0.6"/>
<stop offset="1" stop-color="#231F20"/>
</linearGradient>
</defs>
</svg>
