<svg width="176" height="189" viewBox="0 0 176 189" fill="none" xmlns="http://www.w3.org/2000/svg">
<path d="M140.601 171.463C139.782 171.412 139.554 170.448 140.5 170.34C141.872 170.184 140.5 170.215 168.602 170.206C169.296 170.206 169.942 170.228 169.902 170.964C169.857 171.792 169.262 171.584 165.36 171.584C165.36 171.499 144.467 171.704 140.6 171.463H140.601Z" fill="#FFBC00"/>
<path d="M160.556 161.443C161.903 161.413 161.561 162.919 160.605 162.81C156.37 162.325 139.991 163.215 139.942 161.942C139.895 160.714 152.035 161.63 160.556 161.443Z" fill="#FFBC00"/>
<path d="M151.614 167.028C140.897 166.828 139.981 166.853 140.046 165.952C140.099 165.223 140.299 165.347 153.448 165.652C154.117 165.668 154.566 165.683 154.562 166.404C154.557 167.234 153.669 167.067 151.613 167.028H151.614Z" fill="#FFBC00"/>
<path fill-rule="evenodd" clip-rule="evenodd" d="M143.2 185.206C144.637 185.192 146.414 185.168 148.613 185.138C171.316 184.827 174.951 185.321 175.53 184.215C175.644 183.998 175.64 183.721 175.639 183.364H175.64L175.642 152.478C175.642 151.457 175.406 151.454 172.085 151.413C171.583 151.407 171.009 151.4 170.355 151.388C154.627 151.109 145.844 151.87 145.795 151.493C145.761 151.237 149.774 150.453 158.398 148.455C173.008 145.069 175.218 144.821 175.338 144.18C175.364 144.042 175.293 143.886 175.228 143.676C174.957 142.8 174.762 142.079 174.605 141.494C174.102 139.63 173.973 139.151 172.932 139.456C172.931 139.456 172.93 139.456 172.926 139.457C172.839 139.474 171.444 139.751 142.581 146.453C142.219 146.537 141.876 146.616 141.551 146.692C135.625 148.065 135.488 148.097 135.488 149.312C135.49 154.346 135.472 158.677 135.456 162.405C135.435 167.203 135.419 171.004 135.457 174.024C136.079 174.798 136.661 175.524 137.203 176.204C137.13 169.319 136.942 160.824 136.909 160.173C136.827 158.552 136.932 158.555 138.139 158.595C138.356 158.602 138.609 158.611 138.903 158.611C144.633 158.617 149.266 158.623 153.037 158.628C169.317 158.649 169.541 158.649 172.686 158.542C173.99 158.497 173.994 158.529 173.975 159.911C173.893 165.683 173.984 171.454 174.074 177.226C174.099 178.873 174.125 180.52 174.147 182.167C174.149 182.328 174.151 182.455 174.1 182.554C173.817 183.105 171.898 182.814 159.261 182.928C155.718 182.96 152.615 182.969 149.939 182.976C146.821 182.984 144.281 182.991 142.298 183.032C142.897 184.008 143.188 184.705 143.2 185.206ZM170.364 152.74C168.199 152.717 168.129 152.716 167.816 153.252H167.815C167.239 154.239 166.776 154.989 166.425 155.557C165.45 157.137 165.341 157.314 166.068 157.302C167.127 157.285 167.881 157.295 168.426 157.301C169.672 157.317 169.823 157.319 170.031 156.962C170.68 155.85 171.334 154.742 172.019 153.582C172.18 153.309 172.343 153.033 172.508 152.753C171.626 152.753 170.924 152.745 170.364 152.74ZM161.154 152.763C160.122 152.754 159.903 152.752 159.716 153.035C159.279 153.697 158.905 154.258 158.587 154.733C157.014 157.087 156.854 157.327 157.537 157.333C158.054 157.337 158.492 157.353 158.867 157.366C160.439 157.422 160.898 157.439 161.376 156.407C161.581 155.964 161.855 155.554 162.129 155.143C162.323 154.851 162.518 154.559 162.689 154.255C162.779 154.095 162.925 153.935 163.069 153.778C163.348 153.475 163.618 153.182 163.45 152.91C163.284 152.642 162.9 152.693 162.522 152.744C162.301 152.773 162.082 152.802 161.911 152.767C161.619 152.767 161.369 152.765 161.154 152.763ZM153.823 154.706C155.081 152.894 155.18 152.751 154.438 152.762C152.684 152.787 151.966 152.621 151.396 152.84C150.624 153.138 150.125 154.142 147.692 157.286C148.598 157.286 149.312 157.292 149.878 157.297C152.023 157.315 152.042 157.315 152.321 156.899C152.938 155.98 153.435 155.264 153.823 154.706ZM169.006 144.999C169.932 144.811 170.87 144.621 171.819 144.26C169.472 142.593 168.838 141.909 168.112 141.79C167.482 141.686 166.783 142.006 164.838 142.475C165.446 142.98 165.939 143.392 166.34 143.727C168.01 145.123 168.091 145.19 168.275 145.151C168.518 145.099 168.761 145.049 169.006 144.999ZM162.755 146.453C163.067 146.383 163.385 146.311 163.713 146.238C161.539 144.526 160.924 143.792 160.189 143.641C159.491 143.498 158.686 143.883 156.332 144.457C157.039 145.076 157.579 145.556 157.997 145.927C159.367 147.143 159.421 147.191 159.69 147.133C160.684 146.917 161.678 146.694 162.755 146.453ZM153.629 147.039C152.105 145.664 151.934 145.51 151.707 145.558C150.797 145.747 149.892 145.956 148.934 146.177C148.631 146.246 148.322 146.318 148.006 146.39C149.953 148.087 150.519 148.815 151.217 148.98C151.892 149.14 152.691 148.775 154.978 148.252C154.438 147.768 153.995 147.369 153.629 147.039ZM143.497 150.935C144.407 150.736 145.324 150.535 146.254 150.192V150.191C144.221 148.528 143.627 147.841 142.927 147.708C142.282 147.585 141.548 147.934 139.515 148.426C142.318 150.73 142.629 151.067 142.925 151.054C142.988 151.052 143.049 151.033 143.133 151.015C143.254 150.988 143.376 150.962 143.497 150.935ZM141.535 154.503C141.468 154.582 141.4 154.662 141.332 154.741V154.742C141.121 154.986 140.899 155.222 140.674 155.461C140.126 156.041 139.559 156.643 139.09 157.438C141.231 157.101 141.866 157.41 142.371 157.265C142.973 157.092 143.39 156.274 145.948 152.947C143.362 152.351 142.48 153.39 141.535 154.503Z" fill="#FFBC00"/>
<path d="M82.274 104.778C62.318 105.184 62.3319 105.617 62.3359 104.299C62.3889 88.0951 61.788 88.1601 63.278 88.1471L99.2269 87.7151C100.348 87.6971 99.8569 87.6771 100.234 103.221C100.276 104.968 100.33 104.411 82.274 104.778ZM95.2239 91.0761C91.4749 90.6391 65.354 91.1401 64.956 91.1991C63.632 91.3941 63.883 92.5291 64.889 92.5381C70.323 92.5871 91.7089 92.7591 95.3149 91.6731C95.4159 91.6431 95.9829 91.1651 95.2239 91.0761Z" fill="white"/>
<path fill-rule="evenodd" clip-rule="evenodd" d="M67.8047 177.679C61.3889 185.768 61.5978 185.854 63.2595 185.86C64.4228 185.864 65.3106 185.89 66.0004 185.91C67.9654 185.969 68.3235 185.979 68.8645 185.287C69.3068 184.721 69.5172 184.459 69.879 184.011C69.7185 183.517 69.5444 182.976 69.3535 182.384C67.3698 184.715 66.8957 184.682 65.5695 184.527C65.0735 184.468 64.6025 184.154 65.1265 183.437C65.7087 182.641 66.7148 181.354 68.3401 179.301L67.8047 177.679ZM75.1968 174.981C77.0355 172.616 79.3253 169.681 82.2075 166.041C83.2125 164.772 83.5585 164.327 83.2205 163.661C83.0395 163.306 82.0395 162.219 81.9165 162.145C78.8541 166.035 76.3025 169.261 74.1845 171.934C74.012 171.414 73.8359 170.883 73.6564 170.342C75.6677 167.823 78.0036 164.896 80.7075 161.494C80.7937 161.385 80.8653 161.299 80.9004 161.2C81.1392 160.525 79.6917 159.253 69.6725 146.423C65.0797 140.54 63.578 138.379 62.8586 137.589C62.6712 137.018 62.4836 136.446 62.2961 135.874C70.2941 135.811 89.2165 135.469 133.628 135.146C146.994 135.049 148.763 135.335 148.96 134.903C149 134.817 148.976 134.702 148.97 134.551C148.931 133.597 148.944 132.903 148.954 132.398C148.977 131.198 148.979 131.067 148.212 131.081L147.956 131.084C143.458 131.145 80.9469 131.996 61.0519 132.075C60.8165 131.356 60.5815 130.638 60.347 129.921C60.2461 115.195 59.9224 112.785 60.649 112.41C60.7917 112.336 60.975 112.341 61.2085 112.347C63.788 112.408 64.541 112.383 66.3454 112.322C68.8249 112.239 73.2898 112.089 87.2075 112.007V112.006C87.9396 112.001 88.2335 111.997 88.3485 112.139C88.4675 112.286 88.3925 112.591 88.4155 113.219C88.5725 117.525 88.5245 121.832 88.4765 126.138C88.4685 126.864 88.4605 127.589 88.4535 128.315C88.4515 128.52 88.4275 128.744 88.4035 128.969C88.3465 129.511 88.2885 130.057 88.5315 130.347C88.8175 130.686 89.3785 130.615 89.9345 130.545C90.1635 130.516 90.3915 130.488 90.5985 130.488C92.8825 130.488 92.8945 130.479 92.8385 128.148C92.7305 123.663 92.7485 119.179 92.7665 114.693C92.7685 114.087 92.7715 113.481 92.7735 112.875C92.7775 111.747 93.4395 111.829 94.0385 111.904C94.5515 111.967 95.0185 112.025 94.9845 111.311C94.9435 110.449 94.9585 109.827 94.9705 109.38C94.9935 108.429 94.9975 108.273 94.3965 108.295C63.6508 109.398 60.4693 109.608 60.2671 108.93C60.2304 108.806 60.2921 108.654 60.3045 108.472C60.335 108.03 60.329 107.587 60.323 107.144C60.3176 106.744 60.3122 106.344 60.3335 105.946C60.3824 105.043 60.0495 105.059 59.172 105.101C58.7028 105.124 58.078 105.154 57.2725 105.055C57.0177 105.023 56.83 104.972 56.6937 105.034C56.1721 105.272 56.4054 107.168 56.5214 118.194C56.1061 116.917 55.6961 115.656 55.2926 114.413C55.0063 88.6695 54.9061 85.6109 55.8892 85.2102C56.0236 85.1554 56.1783 85.1503 56.3555 85.1437C56.4513 85.1401 56.5453 85.1365 56.6373 85.133C61.0718 84.9658 61.2218 84.9602 61.2355 86.3807C61.2785 90.7527 61.3525 102.424 61.2785 107.241C61.2761 107.401 61.2189 107.524 61.2513 107.616C61.4308 108.124 64.3637 107.659 94.6475 107.084C96.1625 107.055 96.1695 107.068 96.2005 108.603C96.2125 109.22 96.2275 109.76 96.2395 110.231C96.3175 113.157 96.3255 113.464 95.3365 113.483C93.9025 113.51 93.8885 113.548 93.9095 114.982C93.9375 116.97 93.9685 118.959 93.9995 120.947C94.0455 123.876 94.0905 126.804 94.1265 129.734C94.1295 129.973 94.1285 130.137 94.2055 130.246C94.4715 130.627 95.6755 130.351 101.241 130.347C102.041 130.347 102.041 130.297 101.91 120.998C101.821 114.646 101.671 103.98 101.675 86.0677C101.675 85.1837 102.051 84.7517 102.932 84.7457C105.172 84.7291 106.329 84.4524 106.925 84.9087C107.803 85.5812 107.462 87.8458 107.57 94.882C107.714 104.294 107.443 105.945 107.934 106.216C108.039 106.274 108.178 106.269 108.364 106.264C120.993 105.884 130.972 105.694 137.711 105.565C138.699 105.546 139.618 105.528 140.465 105.512C140.495 105.511 140.524 105.51 140.553 105.51C142.416 105.472 142.538 105.47 142.382 110.719C142.339 112.168 141.663 112.146 141.055 112.126C140.525 112.109 140.046 112.093 140.086 113.057C140.642 126.561 139.758 129.175 140.437 129.678C140.601 129.8 140.857 129.798 141.247 129.798C142.516 129.795 143.785 129.803 145.054 129.812C146.433 129.82 147.812 129.829 149.192 129.825C150.212 129.821 150.203 130.288 150.152 132.953C150.139 133.603 150.124 134.382 150.121 135.318C150.117 136.367 149.826 136.366 145.478 136.35C144.673 136.347 143.727 136.344 142.619 136.347C142.485 136.347 142.38 136.344 142.28 136.364C141.58 136.502 141.1 137.749 132.311 148.962C124.31 159.169 123.183 160.176 123.374 160.707C123.402 160.783 123.455 160.848 123.52 160.93C126.783 165.039 129.511 168.458 131.781 171.301C142.977 185.332 143.013 185.377 141.127 185.403C140.137 185.416 139.345 185.445 138.702 185.468C136.388 185.552 136.001 185.565 135.211 184.568C133.647 182.594 132.127 180.693 130.531 178.699C127.549 174.973 124.305 170.917 120.023 165.44C119.917 165.304 119.854 165.181 119.761 165.15C119.341 165.008 118.3 166.701 109.919 177.29C106.912 181.088 106.399 181.914 106.103 181.843C106.01 181.821 105.939 181.71 105.818 181.575C105.654 181.391 105.519 181.247 105.455 181.077C105.102 180.139 106.915 178.386 118.034 164.535C118.535 163.911 118.537 163.546 118.045 162.94C117.676 162.485 117.526 162.046 117.261 161.959C116.485 161.704 114.723 164.451 103.613 178.56L103.611 178.558L103.601 178.547C102.656 177.556 102.645 177.544 103.434 176.542C107.481 171.403 111.535 166.269 115.606 161.148C115.715 161.011 115.806 160.903 115.849 160.779C116.114 160.016 114.58 158.626 104.504 145.81C104.321 145.577 104.161 145.377 104.021 145.203C103.234 144.224 103.104 144.062 103.457 143.608C103.651 143.359 103.725 143.112 103.869 143.06C104.352 142.887 105.622 144.909 114.848 156.402C114.877 156.438 132.926 179.193 135.321 182.359C136.642 184.106 137.58 184.113 138.968 184.124C139.298 184.127 139.653 184.129 140.044 184.156C126.957 167.23 118.646 156.888 113.518 150.507C105.92 141.052 105.308 140.29 106.496 139.691C106.789 139.542 118.169 154.142 119.155 155.407C119.199 155.463 119.222 155.493 119.223 155.494C119.352 155.657 119.436 155.789 119.549 155.821C120.158 155.99 121.585 153.211 135.145 136.491H135.139C134.656 136.49 107.259 136.446 106.642 137.296C103.077 142.212 92.1295 156.049 88.5395 160.563C88.4725 160.647 88.4165 160.714 88.3875 160.791C88.2035 161.291 89.1855 162.222 96.1045 170.958C104.394 181.426 107.574 184.623 107.006 185.568C106.64 186.176 104.72 185.85 101.61 185.931C101.519 185.933 101.444 185.939 101.37 185.933C100.813 185.887 100.315 185.131 93.4845 176.563C85.8158 166.943 84.9044 165.465 84.5576 165.588C84.4801 165.615 84.4308 165.722 84.3405 165.837C80.5513 170.623 77.7901 174.103 75.7558 176.661C75.5756 176.12 75.3892 175.559 75.1968 174.981ZM133.092 129.874C132.958 129.963 132.763 129.96 132.485 129.958H132.484C121.92 129.885 115.869 130.093 112.409 130.212C108.185 130.357 107.822 130.369 107.821 129.578C107.816 124.266 107.758 120.627 107.718 118.134C107.631 112.715 107.631 112.714 108.454 112.734C114.028 112.867 132.417 112.337 132.952 112.266C133.437 112.201 133.436 112.212 133.358 113.911C133.3 115.171 133.2 117.359 133.223 121.133C133.265 128.062 133.57 129.556 133.092 129.874ZM61.4498 113.929C61.6102 113.77 61.9378 113.78 62.6095 113.783C71.05 113.814 76.6047 113.667 80.2615 113.57C84.353 113.461 86.0674 113.416 86.7855 113.755C87.2965 113.996 87.3035 114.432 87.3035 115.179C87.301 128.194 87.5681 130.182 86.9651 130.496C86.8541 130.553 86.7136 130.554 86.5365 130.557C64.6542 130.859 61.6668 131.39 61.2693 130.607C61.2066 130.483 61.2083 130.327 61.2105 130.132C61.2594 125.819 61.273 121.505 61.2866 117.191C61.2888 116.472 61.2911 115.753 61.2935 115.034C61.296 114.398 61.2938 114.084 61.4498 113.929ZM84.8243 156.283C84.3427 156.479 82.8319 154.145 69.6415 137.52C69.5145 137.361 69.5455 137.094 69.7395 137.069C70.6455 136.951 73.6019 136.957 82.0916 136.975C86.4677 136.984 92.3135 136.997 100.107 136.997L85.1295 155.881C84.9933 156.053 84.9369 156.237 84.8243 156.283ZM134.333 110.695C134.2 110.628 134.031 110.634 133.813 110.639C110.513 111.174 107.065 110.725 106.567 111.734C106.479 111.912 106.482 112.134 106.485 112.416L106.493 113.288C106.543 118.669 106.594 124.05 106.677 129.432C106.69 130.305 106.403 130.296 105.538 130.268C105.108 130.254 104.536 130.235 103.788 130.318C103.575 130.341 103.415 130.373 103.296 130.318C102.758 130.07 103.033 128.055 102.967 115.526C102.918 106.26 102.635 104.615 103.123 104.341C103.229 104.281 103.37 104.286 103.558 104.292C104.29 104.314 104.853 104.28 105.28 104.254C106.214 104.198 106.492 104.181 106.46 104.878C106.448 105.148 106.457 105.421 106.466 105.693C106.478 106.062 106.49 106.432 106.449 106.795C106.422 107.035 106.345 107.229 106.395 107.38C106.642 108.13 110.006 107.851 137.995 107.24C138.665 107.225 139.19 107.197 139.6 107.174C140.819 107.108 141.026 107.097 141.018 107.667C141.006 108.509 141.052 109.071 141.085 109.47C141.13 110.025 141.15 110.261 140.949 110.493C140.7 110.779 140.311 110.713 139.935 110.65C139.397 110.559 138.888 110.474 138.87 111.442C138.691 120.987 138.711 125.149 138.971 129.06C139.026 129.892 138.801 129.887 137.749 129.862C137.221 129.85 136.483 129.833 135.467 129.915C134.585 129.986 134.586 129.947 134.676 127.311C134.719 126.058 134.782 124.217 134.78 121.522C134.773 112.629 134.899 110.985 134.333 110.695ZM98.4445 180.38C94.4155 175.181 85.3294 163.456 64.0365 137.095V137.094C66.9328 137.094 67.5334 136.981 67.8748 137.228C67.9919 137.312 68.0784 137.439 68.2165 137.627C70.2374 140.375 70.3801 140.555 77.2179 149.217C82.033 155.317 90.1685 165.622 104.617 183.992C104.792 184.214 104.936 184.34 104.913 184.409C104.869 184.542 104.207 184.47 101.961 184.489C101.63 184.491 101.377 184.165 98.4445 180.38ZM103.646 136.835C104.144 136.842 104.77 136.851 105.565 136.851C100.386 143.046 95.4415 149.294 90.5085 155.527C89.4275 156.894 88.3465 158.259 87.2635 159.624C86.9925 159.434 85.8135 158.219 85.7285 157.615C85.6843 157.303 89.2125 152.851 93.0455 148.015C96.2325 143.994 99.6305 139.706 101.361 137.312C101.725 136.807 101.879 136.809 103.646 136.835ZM136.597 136.5C136.597 136.5 138.341 136.331 140.474 136.477C124.115 156.323 122.616 159.245 122.094 159.08C121.994 159.048 121.93 158.904 121.805 158.744C121.371 158.188 121.063 157.83 120.985 157.427C120.695 155.934 123.564 153.829 134.914 138.786C135.642 137.821 136.597 136.5 136.597 136.5ZM56.2094 86.7589C56.4261 86.4783 57.0461 86.5092 58.6215 86.4087C59.621 86.4087 60.0479 86.3491 60.2287 86.5319C60.3724 86.6772 60.3606 86.9763 60.3575 87.5817C60.3545 88.1497 60.1335 88.2497 59.6415 88.2527C58.5324 88.2588 57.7814 88.3073 57.2709 88.3402C56.2808 88.4042 56.1951 88.4097 56.1555 87.9347C56.1024 87.296 56.0594 86.9529 56.2094 86.7589ZM106.4 87.0202C106.455 87.3685 106.511 87.72 105.836 87.7037C104.936 87.6816 104.284 87.7063 103.812 87.7243C102.766 87.7639 102.606 87.77 102.608 87.1597C102.61 86.4727 102.637 85.9857 103.525 85.9697C103.766 85.9654 103.991 85.9606 104.199 85.9562C106.125 85.9152 106.667 85.9037 106.398 86.5697C106.348 86.6934 106.374 86.8565 106.4 87.0202Z" fill="white"/>
<path d="M150.741 71.6899C144.854 71.2649 139.896 70.6129 131.376 71.0459C130.812 71.0749 130.678 71.2449 130.805 71.7909C132.17 77.6479 132.993 83.6069 134.148 89.5049C134.453 91.0619 133.767 90.9129 129.4 92.1559C128.489 92.4149 128.831 92.4029 122.925 77.1759C120.848 71.8219 121.025 71.5999 120.121 71.7389C118.226 72.0299 117.475 72.1439 117.297 71.2239C117.23 70.8769 117.624 70.7439 113.066 72.3449C111.549 72.8779 111.612 71.9919 109.985 67.0019C109.564 65.7109 110.403 65.4679 113.863 64.0329C115.331 63.4239 113.767 62.8539 115.252 62.0059C143.245 46.0269 143.033 39.8649 144.621 43.6989C145.556 45.9569 146.158 47.7219 151.376 64.7399C153.586 71.9489 154.054 71.6899 150.741 71.6899ZM137.341 69.0209C151.126 69.0499 151.535 71.4909 150.683 68.7789L143.525 45.5879C142.957 43.7529 143.529 45.0989 136.969 50.2309C132.156 53.9959 122.345 60.3779 116.626 62.7609C115.595 63.1909 116.081 63.0219 118.414 69.7779C119.052 71.6259 120.607 68.9849 137.341 69.0209ZM132.976 89.2449C128.756 71.5869 129.689 71.1179 128.881 71.1709C120.73 71.7049 121.61 70.2669 123.965 76.1629C129.748 90.6369 128.954 90.8939 129.896 90.5769C132.636 89.6539 133.073 89.8969 132.975 89.2459L132.976 89.2449Z" fill="#FFBC00"/>
<path d="M164.888 51.5781C165.729 51.5781 166.969 51.4011 167.061 52.1421C167.1 52.4551 166.842 52.7621 166.459 52.8651C148.467 57.6811 154.269 51.5761 164.888 51.5781Z" fill="#FFBC00"/>
<path d="M156.885 59.0961C169.421 61.5571 167.147 64.4631 156.496 61.0341C154.809 60.4911 155.115 59.0431 156.885 59.0961Z" fill="#FFBC00"/>
<path d="M161.206 44.2026C160.199 44.8576 155.828 47.6096 153.928 48.4696C153.402 48.7076 152.706 49.3336 152.23 48.5836C151.754 47.8336 152.57 47.4536 153.069 47.1316C162.598 40.9796 161.959 43.7126 161.206 44.2026Z" fill="#FFBC00"/>
<path d="M40.5301 91.4868C40.5301 94.1648 41.6091 185.751 41.4561 187.389C41.3311 188.734 40.5181 188.268 36.7101 188.36C35.3341 188.393 35.8431 188.405 35.6001 173.566C35.5691 171.666 35.1141 93.5008 34.8531 93.0528C4.25613 188.145 4.89113 188.01 3.52213 187.912C-2.20585 187.5 -3.97185 198.729 29.3331 92.0438C31.9261 83.7378 31.9471 84.2748 31.4591 83.6198C26.9321 77.5428 28.2951 79.5778 44.9691 78.7038C47.6051 78.5658 45.8211 81.0128 44.3741 83.2208C43.8461 84.0258 77.1771 184.721 77.9021 186.531C78.4411 187.876 78.1991 187.592 73.4021 187.95C72.0911 188.048 72.1891 187.902 68.2451 175.378C68.2381 175.356 40.5791 91.6138 40.5301 91.4868ZM42.3621 83.9578C40.5271 84.3538 39.2811 83.5128 39.7711 84.9418C50.5241 116.293 45.4281 101.662 53.8981 127.263C54.2501 128.326 54.2611 128.321 55.3571 127.945C56.6411 127.504 57.1091 127.674 56.7891 126.703C42.6721 83.8578 43.3061 83.9118 42.3621 83.9558V83.9578ZM36.0391 84.4698C36.0731 84.0088 35.5071 84.3528 33.5641 84.2308C32.7071 84.1768 33.0461 84.0668 20.3651 125.058C19.8191 126.823 19.7921 126.799 21.5781 127.278C23.3631 127.757 21.6671 127.299 36.0391 84.4698ZM36.4841 87.8868C35.9021 89.7658 36.3321 87.8868 36.4331 95.765C36.8741 130.513 35.8531 127.738 38.1671 127.606C38.9571 127.561 39.5311 127.915 39.5071 126.68C38.9091 95.951 40.3771 75.3268 36.4841 87.8868ZM39.0351 82.8678C41.6171 82.8988 43.2051 83.5128 44.2771 80.7958C44.6981 79.7288 45.2681 80.0448 33.8661 80.2188C29.4901 80.2858 30.7521 79.8758 32.1451 82.4788C32.7381 83.5858 33.4591 82.8008 39.0351 82.8678Z" fill="#FFBC00"/>
<path d="M34.3111 35.5131C31.6481 31.6201 31.8091 31.5061 30.9701 31.7361C22.1031 34.1731 13.5561 28.9461 11.3901 20.5311C7.48606 5.3631 26.1851 -5.42195 37.5551 5.4951C43.9721 11.6571 44.5461 23.1671 35.2861 29.7511C34.4651 30.3351 34.7921 30.1071 37.7001 34.6711C38.3761 35.7321 38.1271 35.3531 48.1291 35.3621C49.2191 35.3621 48.7341 35.3091 52.0851 29.5581C53.0561 27.8911 47.3641 27.2331 46.0641 18.6331C43.4441 1.30405 67.1721 -6.44895 75.3191 8.6991C80.7831 18.8591 74.3971 29.9651 64.0651 31.7161C57.1201 32.8921 55.7151 29.4071 54.7661 31.3801C52.8991 35.2601 51.9691 35.3471 53.6071 35.3491C58.8721 35.3561 59.5431 35.0361 59.5921 36.3871C59.6531 38.0651 59.9521 39.7361 59.8471 41.4171C59.7961 42.2401 60.0911 42.3771 60.8291 42.3521C66.6931 42.1591 66.6511 42.3451 66.7161 43.6411C66.8171 45.6521 66.826 45.6851 68.7231 45.0371C72.5161 43.7421 76.3721 42.6481 80.2011 41.4641C81.5841 41.0361 81.6441 40.2451 81.4901 54.4261C81.4341 59.5921 81.6981 60.2631 80.0781 59.8381C67.1531 56.4501 66.9121 54.7631 66.8571 56.2671C66.7911 58.0861 66.7451 58.0961 64.8971 58.2021C63.4161 58.2881 61.9371 58.4081 60.4531 58.3631C59.5151 58.3341 59.8601 58.5221 59.7031 63.3101C59.6511 64.9011 59.8511 64.535 48.6901 64.659C47.1061 64.677 47.8921 68.1471 42.8301 70.6551C41.9641 71.0841 44.3071 73.2551 42.0981 76.1211C38.8831 80.2941 31.5641 77.3161 33.1211 71.4131C33.4721 70.0821 30.4901 70.614 28.4921 65.84C27.9531 64.551 28.4741 65.0321 13.1651 64.9721C9.32306 64.9571 8.87706 64.8821 8.83106 63.9321C8.82006 63.7041 8.62906 58.9871 8.69706 58.5351C8.83406 57.6261 8.24306 58.1261 3.86906 59.6631C1.25806 60.5801 1.16306 60.4891 1.47006 51.1141C1.49706 50.3021 1.92206 50.0651 2.81906 50.2881C8.08406 51.6001 8.49606 52.7561 8.76606 51.5881C9.10206 50.1341 10.4221 49.5251 11.4691 48.7581C17.1341 44.6051 22.9491 40.6661 28.7911 36.7671C30.6591 35.5201 31.4201 35.7781 34.3091 35.5121L34.3111 35.5131ZM47.8571 62.9801C58.0981 62.8231 58.0531 63.3541 58.0371 62.1771C58.0191 60.7671 57.8981 42.5501 58.1471 38.3531C58.2611 36.4311 58.2251 37.1561 43.0241 37.3711C31.2861 37.5371 31.2101 37.2171 30.6021 37.6661C20.0981 45.4231 13.3831 49.0561 10.8011 51.2651C10.0161 51.9371 10.3011 51.5251 10.2841 62.8441C10.2841 63.3381 10.4271 63.5101 10.9401 63.4591C15.2551 63.0321 43.0471 63.0541 47.8581 62.9801H47.8571ZM79.2221 43.2231C66.7961 47.2871 66.8511 46.5951 66.8561 47.4541C66.8961 54.2201 66.6011 54.1891 67.4401 54.3771C78.3541 56.8221 79.8621 59.1181 79.8401 57.3891C79.6861 45.2041 80.6031 42.7711 79.2221 43.2231ZM61.6621 30.628C69.2961 30.682 75.729 24.3161 75.7801 16.6151C75.8311 8.9141 69.7341 2.37205 61.8651 2.24205C53.7941 2.10805 47.5561 8.5051 47.5101 16.3251C47.4631 24.1451 53.7121 30.5731 61.6621 30.6291V30.628ZM40.7351 16.8771C40.7691 9.2901 34.5351 2.77905 26.8651 2.68505C18.9741 2.58905 12.5421 9.0211 12.5431 16.7971C12.5441 24.4021 18.3361 31.1451 26.8671 31.0701C34.5841 31.0021 40.7001 24.6771 40.7351 16.8771ZM65.5281 44.4891C65.5501 43.3411 65.2151 43.7991 60.5631 43.7441C59.4491 43.7311 59.9101 43.7021 59.7401 56.2711C59.7251 57.3921 60.0131 56.9151 64.8261 57.0211C66.0611 57.0481 65.2861 56.9271 65.5281 44.4891ZM29.7801 64.8571C30.1311 66.5511 32.3131 68.3771 34.0451 69.1841C35.1391 69.6941 37.0211 66.9801 40.6681 69.1011C41.9141 69.8261 44.7361 66.9241 45.6021 65.5211C46.4411 64.1611 46.5731 64.8561 29.7811 64.8561L29.7801 64.8571ZM37.9801 76.7201C43.0171 76.7311 42.5311 69.7461 37.8011 69.7301C32.9791 69.7141 33.0581 76.7091 37.9801 76.7201ZM8.70706 55.2021C8.48506 52.9711 9.23206 54.3401 3.41306 51.9711C2.24306 51.4951 2.70306 51.7321 2.79506 58.0391C2.80906 58.9631 2.97406 58.4851 7.35906 57.0431C8.71506 56.5971 8.72205 56.6181 8.70606 55.2021H8.70706Z" fill="#FFBC00"/>
<path d="M53.7685 60.9698C43.5565 61.0888 43.3265 61.2988 43.3265 60.1108C43.3265 49.6798 43.0175 49.5348 44.2755 49.5298C54.7425 49.4868 54.6505 49.0758 54.6505 50.5028C54.6505 60.8758 55.0805 60.9548 53.7685 60.9698ZM44.5005 59.3428C44.5025 59.5998 44.4065 59.9358 44.9185 59.8998C55.7015 59.1348 53.4215 62.6768 53.4925 51.6588C53.5035 49.9118 52.5055 51.2218 45.4155 50.8268C44.2075 50.7598 44.4215 50.7198 44.5005 59.3428Z" fill="#FFBC00"/>
<path d="M50.4886 41.3301C51.4236 41.3161 52.3886 42.3441 52.3766 43.3411C52.3676 44.1461 51.3806 45.0591 50.4996 45.0771C48.0876 45.1271 47.7806 41.3701 50.4886 41.3301Z" fill="#FFBC00"/>
<path d="M23.7686 60.3173C23.7326 62.1383 20.8196 62.1073 20.8086 60.2393C20.7976 58.3913 23.8106 58.2283 23.7686 60.3173Z" fill="#FFBC00"/>
<path d="M27.4235 58.7783C28.2065 58.7783 28.9425 59.4963 28.9475 60.2643C28.9515 60.9713 28.2205 61.6713 27.4595 61.6893C25.5755 61.7343 25.4905 58.7783 27.4235 58.7783Z" fill="#FFBC00"/>
<path d="M18.4166 60.3192C18.4096 61.0042 17.6046 61.7242 16.8796 61.6932C16.1006 61.6592 15.4706 60.9862 15.4766 60.1942C15.4916 58.3032 18.4366 58.3212 18.4166 60.3192Z" fill="#FFBC00"/>
<path d="M74.0837 16.3402C74.0617 23.0882 68.6307 29.0772 61.4377 29.0002C54.5777 28.9262 48.8858 23.5592 48.9458 16.1822C49.0058 8.8052 54.7607 3.83319 61.3497 3.70819C68.2317 3.57819 74.1058 9.3912 74.0828 16.3412L74.0837 16.3402ZM61.6328 4.9472C55.3878 4.9042 50.3018 10.0552 50.2508 16.1702C50.1968 22.5742 55.3258 27.6532 61.5138 27.6842C76.8378 27.7612 76.9568 5.0522 61.6328 4.9472Z" fill="#FFBC00"/>
<path d="M26.5928 29.4182C19.7168 29.4292 13.8868 23.7012 13.9398 16.6712C13.9898 10.1112 19.5218 4.0692 26.7668 4.1752C33.3048 4.2712 39.0778 9.7892 39.1418 16.6732C39.2048 23.4122 33.5908 29.4062 26.5918 29.4182H26.5928ZM38.1228 16.8822C38.2098 1.5602 15.4988 1.7682 15.2608 16.5642C15.0178 31.6092 38.0358 32.1482 38.1228 16.8822Z" fill="#FFBC00"/>
<path d="M39.8211 73.1287C39.8391 75.5247 36.2081 75.5607 36.1491 73.1667C36.0901 70.7727 39.8021 70.6357 39.8211 73.1287Z" fill="#FFBC00"/>
<path d="M57.448 16.5735C57.492 20.3325 51.795 20.3905 51.7 16.6315C51.662 15.1305 53.069 13.7185 54.591 13.7315C56.112 13.7445 57.431 15.0765 57.448 16.5735Z" fill="#FFBC00"/>
<path d="M64.7996 22.6232C64.8046 24.1292 63.4636 25.5192 62.0096 25.5182C60.4456 25.5172 59.0696 24.1842 59.0606 22.6632C59.0396 18.9112 64.7876 18.8712 64.7996 22.6232Z" fill="#FFBC00"/>
<path d="M61.95 12.6845C58.014 12.6585 58.251 7.0755 61.948 7.0645C65.673 7.0535 65.799 12.7105 61.95 12.6845Z" fill="#FFBC00"/>
<path d="M68.7383 18.9602C64.8343 18.9222 65.0893 13.2962 68.7313 13.3352C72.6383 13.3772 72.4723 18.9962 68.7383 18.9602Z" fill="#FFBC00"/>
<path d="M27.2113 20.3C31.0393 20.34 30.9213 25.954 27.1643 25.916C23.4073 25.878 23.3633 20.26 27.2113 20.3Z" fill="#FFBC00"/>
<path d="M36.8533 16.5485C36.8893 20.4845 31.0853 20.2555 31.1213 16.5795C31.1573 12.9035 36.8203 12.8045 36.8533 16.5485Z" fill="#FFBC00"/>
<path d="M22.6706 17.0251C22.6636 18.5821 21.3576 19.9071 19.7996 19.9361C18.3546 19.9631 16.9506 18.5641 16.9376 17.0881C16.9056 13.2871 22.6856 13.3471 22.6696 17.0251H22.6706Z" fill="#FFBC00"/>
<path d="M27.1681 13.1675C23.3601 13.1575 23.3961 7.4895 27.2041 7.5335C30.9961 7.5775 30.9611 13.1775 27.1681 13.1675Z" fill="#FFBC00"/>
</svg>
