<svg width="16" height="16" viewBox="0 0 16 16" fill="none" xmlns="http://www.w3.org/2000/svg">
<g clip-path="url(#clip0_183_4637)">
<path d="M13 5.66669C13 2.90526 10.7614 0.666687 8 0.666687C5.23857 0.666687 3 2.90526 3 5.66669C3 8.42809 5.23857 10.6667 8 10.6667C10.7614 10.6667 13 8.42809 13 5.66669Z" stroke="#FFBC00" stroke-width="1.5"/>
<path d="M8.37518 5.23807L8.00018 4.59521L7.62518 5.23807L6.92871 5.45236L7.41084 5.9345L7.25018 6.73807L8.00018 6.39973L8.75018 6.73807L8.58944 5.9345L9.07158 5.45236L8.37518 5.23807Z" stroke="#FFBC00" stroke-width="1.5"/>
<path d="M5.33301 9.89587V14.6667L7.99967 12.6667L10.6663 14.6667V9.89594" stroke="#FFBC00" stroke-width="1.5"/>
</g>
<defs>
<clipPath id="clip0_183_4637">
<rect width="16" height="16" fill="white"/>
</clipPath>
</defs>
</svg>
