<svg width="110" height="104" viewBox="0 0 110 104" fill="none" xmlns="http://www.w3.org/2000/svg">
<path fill-rule="evenodd" clip-rule="evenodd" d="M36.8119 15.5135C35.445 16.1791 34.1194 16.916 32.8388 17.7185L32.822 17.711C32.777 17.6922 32.7319 17.6679 32.6869 17.6472C32.6813 17.681 32.6757 17.7166 32.6682 17.7522L32.7301 17.786C26.2351 21.8866 20.9382 27.7123 17.4788 34.6198L17.4601 34.3704C17.3757 33.7291 17.3119 33.0897 17.4338 32.4504C17.4544 32.3416 17.5932 32.1823 17.6644 32.066C18.7069 30.4104 18.9282 29.8591 18.8682 27.8622C18.8176 27.7104 18.7688 27.5585 18.7182 27.4048C18.6582 27.2248 18.6001 27.0448 18.5401 26.8629C18.5401 26.8629 18.377 26.5666 18.2888 26.4372C17.8257 25.7566 17.6963 25.4266 17.0232 24.8941C16.2582 24.1141 14.9157 23.0679 13.8957 22.6272C13.8019 22.586 13.5095 22.5035 13.5095 22.5035C13.442 22.4416 13.3744 22.3816 13.3069 22.3197C13.3032 22.3835 13.3013 22.4491 13.2976 22.5147C13.2976 22.5147 13.2376 22.6722 13.2282 22.7885C13.1738 23.4541 12.7876 25.4791 12.7388 27.056C12.7182 27.7179 12.8476 28.2016 13.0838 28.8466C13.2845 29.396 13.6857 30.0316 13.9801 30.5454C13.9801 30.5454 14.7019 31.3141 14.8051 31.4229C14.9063 31.5335 15.5888 32.0079 15.6919 32.1185C15.7951 32.2272 16.2957 32.4091 16.4607 32.456C16.6257 32.5047 16.742 32.5779 16.742 32.5779C16.742 32.5779 16.8863 32.7354 16.9557 32.8497C17.2182 33.2885 17.1957 33.9841 17.2613 34.4679C17.2745 34.5616 17.2857 34.6535 17.2988 34.7454L17.4488 34.6816C16.3013 36.9804 15.3582 39.401 14.6419 41.9172C14.4113 41.2966 14.2051 40.6685 14.1807 39.9972C14.1769 39.8791 14.2801 39.6822 14.3288 39.5472C15.0132 37.5972 15.1107 36.9785 14.5782 34.9347C14.492 34.7885 14.4057 34.6441 14.3176 34.4997C14.2144 34.3291 14.1113 34.1566 14.0063 33.9841C14.0063 33.9841 13.7682 33.7179 13.6482 33.6054C13.0107 33.0129 12.8007 32.7054 11.9813 32.3154C11.0101 31.6929 9.38068 30.9316 8.22755 30.7197C8.12068 30.6991 7.79817 30.6823 7.79817 30.6823C7.7138 30.6354 7.63133 30.5866 7.54695 30.5397C7.56008 30.6072 7.57132 30.6747 7.58444 30.7422C7.58444 30.7422 7.56006 30.9185 7.57881 31.0404C7.67819 31.7379 7.7588 33.9147 8.07942 35.5497C8.21442 36.236 8.46007 36.7047 8.8557 37.3122C9.19132 37.8297 9.75571 38.3904 10.1795 38.8479C10.1795 38.8479 11.1019 39.4704 11.2351 39.5585C11.3663 39.6466 12.1801 39.9747 12.3113 40.0629C12.4426 40.1529 13.0013 40.2204 13.1832 40.2316C13.3651 40.2429 13.502 40.2897 13.502 40.2897C13.502 40.2897 13.6876 40.4172 13.7851 40.5204C14.1582 40.9104 14.2988 41.6322 14.4788 42.1141L14.5407 42.2791C13.817 44.9116 13.3407 47.6472 13.1419 50.4597C12.8832 50.0322 12.6601 49.5841 12.527 49.0929C12.4951 48.9729 12.5551 48.746 12.572 48.5941C12.8101 46.4172 12.7632 45.7554 11.7263 43.7754C11.6026 43.6479 11.4788 43.5185 11.3532 43.3891C11.2051 43.2373 11.0569 43.0835 10.9088 42.9335C10.9088 42.9335 10.5994 42.7141 10.4476 42.6279C9.64695 42.1685 9.35631 41.9022 8.41881 41.696C7.26756 41.2854 5.40569 40.8916 4.16257 40.946C4.04819 40.9516 3.71259 41.0116 3.71259 41.0116C3.61509 40.9816 3.51757 40.9535 3.4182 40.9235C3.4482 40.991 3.47632 41.0585 3.50444 41.1241C3.50444 41.1241 3.52133 41.3135 3.56821 41.4354C3.84008 42.131 4.44383 44.3585 5.16383 45.9691C5.46758 46.6441 5.83509 47.0697 6.38634 47.6004C6.85696 48.0541 7.57321 48.4985 8.12071 48.8698C8.12071 48.8698 9.22133 49.2916 9.37883 49.3516C9.53633 49.4116 10.4532 49.5541 10.6107 49.616C10.7682 49.676 11.3588 49.6122 11.55 49.5804C11.7413 49.5485 11.8913 49.5654 11.8913 49.5654C11.8913 49.5654 12.1145 49.6535 12.2382 49.7341C12.6001 49.9704 12.8701 50.4372 13.1119 50.8479C13.0576 51.7216 13.0294 52.6029 13.0294 53.4898C13.0294 55.6798 13.1963 57.8285 13.5188 59.9285L13.3013 59.6922C12.7501 59.1654 12.2176 58.6235 11.8557 57.9391C11.7957 57.8247 11.8032 57.5754 11.7863 57.4141C11.5238 55.1172 11.3213 54.4441 9.79132 52.646C9.63195 52.5429 9.47444 52.4379 9.31506 52.3347C9.12756 52.2129 8.93819 52.0891 8.75069 51.9673C8.75069 51.9673 8.38133 51.8154 8.20508 51.761C7.2732 51.4741 6.91319 51.266 5.89694 51.2716C4.61444 51.1179 2.60255 51.146 1.33693 51.4929C1.22068 51.5247 0.886948 51.6654 0.886948 51.6654C0.778198 51.6579 0.671328 51.6504 0.564453 51.6429C0.609453 51.7047 0.654449 51.7666 0.701324 51.8285C0.701324 51.8285 0.763198 52.0179 0.840073 52.1322C1.2807 52.7885 2.42256 54.941 3.54193 56.4316C4.01068 57.056 4.48881 57.4085 5.18256 57.8285C5.77318 58.1847 6.61508 58.4772 7.2657 58.7304C7.2657 58.7304 8.49945 58.9066 8.67383 58.9329C8.85008 58.9591 9.8288 58.8916 10.0051 58.9179C10.1813 58.9441 10.7757 58.7397 10.9651 58.6629C11.1526 58.586 11.3138 58.5672 11.3138 58.5672C11.3138 58.5672 11.5632 58.6047 11.7113 58.6591C12.2757 58.871 12.7707 59.5291 13.1888 59.9266C13.2694 60.0035 13.3482 60.0804 13.4288 60.1554L13.5263 59.9735C13.9913 62.9829 14.7732 65.8873 15.8401 68.651C15.3338 68.3416 14.852 68.0004 14.4507 67.5504C14.3645 67.4529 14.312 67.2073 14.2557 67.0573C13.4532 64.8898 13.0951 64.286 11.1788 62.9041C11.0007 62.8422 10.8207 62.7804 10.6426 62.7166C10.4307 62.6416 10.2188 62.5685 10.0069 62.4935C10.0069 62.4935 9.61133 62.4335 9.42758 62.4222C8.45446 62.366 8.05507 62.2516 7.06882 62.4991C5.78632 62.6547 3.84005 63.1648 2.69443 63.8023C2.58943 63.8604 2.29883 64.076 2.29883 64.076C2.19383 64.0947 2.08696 64.1135 1.98009 64.1322C2.04009 64.1829 2.0982 64.2316 2.15633 64.2822C2.15633 64.2822 2.2613 64.451 2.36443 64.5447C2.94943 65.0754 4.5713 66.8941 6.01505 68.0735C6.62067 68.5666 7.16818 68.7935 7.94255 69.0354C8.60255 69.2416 9.48946 69.3222 10.1813 69.4141C10.1813 69.4141 11.4207 69.2904 11.5969 69.2735C11.775 69.2566 12.7088 68.9566 12.8851 68.9416C13.0632 68.9247 13.5919 68.5835 13.7569 68.4635C13.9219 68.3435 14.0738 68.2872 14.0738 68.2872C14.0738 68.2872 14.3251 68.2647 14.4826 68.2835C14.9907 68.3416 15.5251 68.7279 15.9826 69.0166C17.0813 71.7916 18.4688 74.4241 20.1038 76.8729L20.0044 76.8354C19.2469 76.5954 18.5007 76.3329 17.8482 75.8622C17.7376 75.7835 17.6326 75.5454 17.5426 75.4048C16.2413 73.3816 15.7426 72.8454 13.4851 71.8704C13.2901 71.846 13.0932 71.8216 12.8982 71.7972C12.6657 71.7691 12.4332 71.741 12.2007 71.7129C12.2007 71.7129 11.7844 71.741 11.595 71.771C10.5919 71.9304 10.1607 71.9041 9.21381 72.3747C7.94443 72.8229 6.07882 73.7716 5.05507 74.6791C4.96132 74.7616 4.71381 75.0447 4.71381 75.0447C4.60881 75.0879 4.5057 75.131 4.40257 75.1741C4.47382 75.2116 4.54318 75.2473 4.61443 75.2866C4.61443 75.2866 4.75884 75.4347 4.88446 75.5079C5.59884 75.9166 7.65571 77.4035 9.38634 78.281C10.112 78.6485 10.7194 78.7572 11.5613 78.8304C12.2776 78.8922 13.1982 78.7779 13.9238 78.716C13.9238 78.716 15.1576 78.3148 15.3338 78.2566C15.5101 78.1985 16.3932 77.6866 16.5694 77.6304C16.7457 77.5723 17.2088 77.1091 17.3495 76.9498C17.4901 76.7923 17.6307 76.7004 17.6307 76.7004C17.6307 76.7004 17.882 76.6197 18.0451 76.6047C18.6694 76.5429 19.4363 76.9291 20.0082 77.111L20.3307 77.2122C21.8644 79.4604 23.6082 81.5529 25.5338 83.4616C24.9807 83.3997 24.4351 83.2929 23.9082 83.0772C23.777 83.0247 23.612 82.811 23.4845 82.691C21.6676 80.9641 21.0319 80.546 18.5082 80.1185C18.3038 80.141 18.1013 80.1672 17.8969 80.1897C17.6551 80.2197 17.4132 80.2479 17.1732 80.276C17.1732 80.276 16.7607 80.4072 16.5751 80.4841C15.6019 80.8947 15.1576 80.9735 14.3176 81.6841C13.1438 82.4491 11.4919 83.8704 10.6819 85.0385C10.6069 85.1472 10.4269 85.4941 10.4269 85.4941C10.3313 85.5635 10.2375 85.631 10.1438 85.7004C10.2244 85.721 10.3051 85.7398 10.3876 85.7604C10.3876 85.7604 10.5694 85.8747 10.7138 85.916C11.5369 86.1522 13.9838 87.1479 15.9488 87.6072C16.7757 87.8004 17.4151 87.761 18.2832 87.626C19.0238 87.5116 19.9257 87.1685 20.6438 86.9285C20.6438 86.9285 21.7913 86.2179 21.9544 86.1166C22.1175 86.0154 22.8863 85.2785 23.0494 85.1773C23.2144 85.076 23.5669 84.491 23.6682 84.296C23.7713 84.101 23.8913 83.9735 23.8913 83.9735C23.8913 83.9735 24.1257 83.831 24.2851 83.7747C24.7276 83.6172 25.2976 83.6791 25.8169 83.7391C27.9544 85.8166 30.3094 87.671 32.8482 89.2591C32.1357 89.3754 31.4213 89.4466 30.6957 89.3435C30.5494 89.3229 30.3282 89.1504 30.1688 89.0585C27.8944 87.7704 27.1445 87.5097 24.482 87.7141C24.2832 87.7891 24.0826 87.866 23.8819 87.9429C23.6457 88.0329 23.4076 88.1229 23.1695 88.2147C23.1695 88.2147 22.7832 88.451 22.6182 88.5766C21.7369 89.2385 21.3076 89.4297 20.6363 90.3616C19.6426 91.4341 18.3301 93.2904 17.8069 94.6779C17.7582 94.8054 17.6644 95.2029 17.6644 95.2029C17.5857 95.2966 17.5088 95.3904 17.4301 95.4841H17.6907C17.6907 95.4841 17.9044 95.5535 18.0619 95.5591C18.9544 95.591 21.6826 95.9791 23.7901 95.9454C24.6751 95.9304 25.3126 95.7279 26.1582 95.3716C26.8782 95.0698 27.7051 94.4941 28.3688 94.0666C28.3688 94.0666 29.3495 93.0579 29.4901 92.9135C29.6307 92.7691 30.2213 91.8298 30.3601 91.6854C30.5007 91.541 30.7088 90.8604 30.7632 90.6373C30.8176 90.4141 30.9075 90.2547 30.9075 90.2547C30.9075 90.2547 31.1082 90.0522 31.2563 89.9529C31.7682 89.6135 32.5763 89.5685 33.2007 89.4766C35.7638 91.0479 38.507 92.3529 41.3926 93.3522C40.7813 93.6054 40.1513 93.8116 39.482 93.8847C39.3245 93.8997 39.0507 93.7798 38.8632 93.7291C36.1782 92.9997 35.3363 92.9285 32.6457 93.8379C32.4582 93.9691 32.2726 94.1004 32.0869 94.2297C31.8657 94.3854 31.6463 94.5429 31.425 94.6966C31.425 94.6966 31.0895 95.0416 30.9507 95.2141C30.2157 96.1272 29.8219 96.4385 29.3757 97.5766C28.6332 98.9416 27.7669 101.201 27.5926 102.77C27.5757 102.915 27.5832 103.35 27.5832 103.35C27.5269 103.466 27.4707 103.582 27.4163 103.7C27.5063 103.678 27.5963 103.655 27.6863 103.633C27.6863 103.633 27.9245 103.65 28.0876 103.614C29.0157 103.412 31.9313 103.095 34.095 102.506C35.0025 102.26 35.6082 101.883 36.3863 101.295C37.0501 100.792 37.7494 99.9822 38.3232 99.3691C38.3232 99.3691 39.0694 98.0679 39.1763 97.8822C39.2832 97.6966 39.6451 96.5735 39.752 96.3879C39.8588 96.2004 39.8963 95.4466 39.8926 95.201C39.8907 94.9554 39.9413 94.7697 39.9413 94.7697C39.9413 94.7697 40.0951 94.5072 40.2226 94.3685C40.592 93.9616 41.2294 93.7141 41.7919 93.4929C46.0069 94.9047 50.5219 95.6735 55.2113 95.6735C59.9007 95.6735 64.247 94.9347 68.3963 93.5697C68.9063 93.7741 69.4426 94.0085 69.7707 94.3704C69.8982 94.5091 70.0519 94.7716 70.0519 94.7716C70.0519 94.7716 70.1026 94.9591 70.1007 95.2029C70.0988 95.4485 70.1363 96.2041 70.2432 96.3897C70.3501 96.5754 70.7101 97.6985 70.8188 97.8841C70.9257 98.0697 71.672 99.371 71.672 99.371C72.2457 99.9841 72.9469 100.796 73.6088 101.297C74.3869 101.885 74.9926 102.264 75.9001 102.508C78.0638 103.097 80.9794 103.413 81.9075 103.616C82.0707 103.652 82.3088 103.635 82.3088 103.635C82.3988 103.657 82.4888 103.68 82.5788 103.702C82.5226 103.584 82.4663 103.468 82.4101 103.352C82.4101 103.352 82.4176 102.917 82.4007 102.772C82.2263 101.203 81.3619 98.9435 80.6176 97.5785C80.1713 96.4404 79.7795 96.1291 79.0445 95.216C78.9057 95.0416 78.5701 94.6985 78.5701 94.6985C78.3488 94.5429 78.1295 94.3872 77.9082 94.2316C77.7226 94.1022 77.5351 93.971 77.3495 93.8397C74.657 92.9285 73.815 92.9998 71.1301 93.731C70.9426 93.7835 70.6688 93.9035 70.5132 93.8866C69.917 93.821 69.3526 93.6504 68.8032 93.4347C71.7451 92.4354 74.5407 91.1172 77.1507 89.5254C77.7038 89.5947 78.3207 89.6773 78.7388 89.9548C78.8888 90.0523 79.0895 90.2566 79.0895 90.2566C79.0895 90.2566 79.1794 90.416 79.2338 90.6391C79.2882 90.8623 79.4982 91.5429 79.6388 91.6872C79.7794 91.8316 80.3701 92.771 80.5088 92.9154C80.6494 93.0597 81.6301 94.0685 81.6301 94.0685C82.2957 94.4941 83.1207 95.0698 83.8426 95.3735C84.6882 95.7298 85.3257 95.9322 86.2107 95.9472C88.3182 95.9791 91.0463 95.5929 91.9388 95.561C92.0963 95.5554 92.3101 95.486 92.3101 95.486H92.5707C92.4919 95.3923 92.4151 95.2985 92.3363 95.2048C92.3363 95.2048 92.2407 94.8072 92.1938 94.6797C91.6688 93.2922 90.3582 91.436 89.3644 90.3635C88.6951 89.4316 88.2638 89.2404 87.3826 88.5785C87.2157 88.4529 86.8294 88.2166 86.8294 88.2166C86.5932 88.1266 86.3551 88.0366 86.1188 87.9447C85.9182 87.8679 85.7176 87.7929 85.5188 87.716C82.8563 87.5116 82.1063 87.7722 79.8301 89.0604C79.6726 89.1504 79.4494 89.3229 79.3032 89.3454C78.6976 89.4335 78.0975 89.396 77.4994 89.3135C80.0907 87.6991 82.4926 85.811 84.6676 83.6885C85.037 83.6604 85.4082 83.6641 85.7138 83.7747C85.8751 83.8291 86.1095 83.9735 86.1095 83.9735C86.1095 83.9735 86.2294 84.101 86.3326 84.296C86.4357 84.491 86.7882 85.076 86.9513 85.1773C87.1163 85.2785 87.8832 86.0154 88.0463 86.1166C88.2094 86.2179 89.357 86.9285 89.357 86.9285C90.0751 87.1685 90.9769 87.5135 91.7157 87.626C92.5838 87.761 93.2269 87.8004 94.0519 87.6072C96.0188 87.1479 98.4638 86.1522 99.287 85.916C99.4313 85.8747 99.6151 85.7604 99.6151 85.7604C99.6957 85.7398 99.7763 85.721 99.857 85.7004C99.7632 85.631 99.6676 85.5635 99.5738 85.4941C99.5738 85.4941 99.3938 85.1472 99.3188 85.0385C98.5088 83.8685 96.857 82.4491 95.6851 81.6841C94.8451 80.9735 94.3988 80.8929 93.4276 80.4841C93.242 80.4072 92.8294 80.276 92.8294 80.276C92.5875 80.2479 92.3457 80.2179 92.1057 80.1897C91.9013 80.1672 91.6988 80.141 91.4944 80.1185C88.9726 80.5479 88.3351 80.9641 86.5182 82.691C86.3907 82.811 86.2257 83.0247 86.0944 83.0772C85.7288 83.2272 85.3538 83.3247 84.9732 83.3904C86.9232 81.4516 88.6838 79.3216 90.2269 77.0322C90.7651 76.8372 91.4157 76.5504 91.9594 76.6047C92.1226 76.6197 92.3738 76.7004 92.3738 76.7004C92.3738 76.7004 92.5144 76.7904 92.6551 76.9498C92.7957 77.1091 93.2588 77.5723 93.4332 77.6304C93.6095 77.6866 94.4926 78.2004 94.6688 78.2566C94.8451 78.3148 96.0769 78.716 96.0769 78.716C96.8026 78.7779 97.7232 78.8922 98.4395 78.8304C99.2813 78.7572 99.8888 78.6485 100.614 78.281C102.345 77.4035 104.4 75.9166 105.116 75.5079C105.242 75.4347 105.386 75.2866 105.386 75.2866C105.458 75.2491 105.529 75.2116 105.6 75.1741C105.495 75.131 105.392 75.0879 105.289 75.0447C105.289 75.0447 105.041 74.7616 104.948 74.6791C103.924 73.7716 102.058 72.8229 100.789 72.3747C99.8438 71.9022 99.4088 71.9304 98.4075 71.771C98.2163 71.741 97.8019 71.7129 97.8019 71.7129C97.5694 71.741 97.3369 71.7691 97.1063 71.7972C96.9113 71.8216 96.7145 71.846 96.5195 71.8704C94.262 72.8472 93.7632 73.3816 92.4619 75.4048C92.3701 75.5473 92.2651 75.7835 92.1544 75.8622C91.6351 76.2391 91.0519 76.4829 90.4538 76.6872C92.1057 74.1823 93.4988 71.4916 94.5938 68.6529C94.8976 68.4729 95.2144 68.3172 95.5219 68.2816C95.6776 68.2629 95.9307 68.2854 95.9307 68.2854C95.9307 68.2854 96.0826 68.3416 96.2457 68.4616C96.4107 68.5816 96.9394 68.921 97.1157 68.9397C97.2938 68.9566 98.2276 69.2547 98.4038 69.2716C98.5801 69.2904 99.8213 69.4122 99.8213 69.4122C100.513 69.3204 101.4 69.2379 102.06 69.0335C102.834 68.7916 103.382 68.5647 103.988 68.0716C105.429 66.8922 107.053 65.0735 107.638 64.5429C107.741 64.4491 107.846 64.2804 107.846 64.2804C107.904 64.2297 107.964 64.181 108.023 64.1304C107.916 64.1116 107.809 64.0929 107.704 64.0741C107.704 64.0741 107.413 63.8585 107.308 63.8004C106.163 63.161 104.216 62.6529 102.934 62.4972C101.949 62.2497 101.55 62.3641 100.575 62.4204C100.389 62.4298 99.9957 62.4916 99.9957 62.4916C99.7838 62.5647 99.5719 62.6397 99.3601 62.7147C99.1819 62.7766 99.0038 62.8404 98.8238 62.9022C96.9076 64.2841 96.5494 64.8879 95.7469 67.0554C95.6907 67.2072 95.6382 67.451 95.5519 67.5485C95.3063 67.8241 95.0307 68.0585 94.7382 68.2704C95.7488 65.5704 96.4913 62.7391 96.9319 59.8085C97.3238 59.4091 97.7794 58.8466 98.2913 58.6554C98.4376 58.601 98.6888 58.5635 98.6888 58.5635C98.6888 58.5635 98.8482 58.5822 99.0376 58.6591C99.2251 58.7379 99.8213 58.9404 99.9976 58.9141C100.174 58.8897 101.153 58.9554 101.329 58.9291C101.505 58.9047 102.737 58.7266 102.737 58.7266C103.388 58.4735 104.229 58.181 104.82 57.8248C105.514 57.4048 105.992 57.0522 106.461 56.4279C107.58 54.9372 108.722 52.7848 109.163 52.1285C109.239 52.0141 109.301 51.8248 109.301 51.8248C109.346 51.7629 109.391 51.701 109.436 51.6391C109.329 51.6466 109.221 51.6541 109.114 51.6616C109.114 51.6616 108.78 51.5229 108.664 51.4891C107.398 51.1422 105.386 51.1141 104.104 51.2679C103.089 51.2622 102.728 51.4704 101.796 51.7572C101.619 51.8116 101.25 51.9635 101.25 51.9635C101.063 52.0854 100.875 52.2091 100.686 52.331C100.528 52.4341 100.369 52.5391 100.211 52.6423C98.6794 54.4404 98.477 55.1135 98.2163 57.4104C98.1976 57.5697 98.2069 57.8191 98.1451 57.9354C97.8469 58.4997 97.4326 58.9666 96.9863 59.4091C97.2582 57.4741 97.4007 55.496 97.4007 53.486C97.4007 52.3891 97.3576 51.3035 97.277 50.2272C97.4195 50.0266 97.5807 49.8485 97.7626 49.7304C97.8863 49.6479 98.1095 49.5616 98.1095 49.5616C98.1095 49.5616 98.2613 49.5448 98.4507 49.5766C98.642 49.6085 99.2325 49.6741 99.39 49.6122C99.5475 49.5522 100.464 49.4097 100.622 49.3479C100.779 49.2879 101.882 48.866 101.882 48.866C102.429 48.4947 103.146 48.0504 103.616 47.5966C104.169 47.0641 104.537 46.6404 104.839 45.9654C105.561 44.3548 106.163 42.1291 106.434 41.4316C106.483 41.3097 106.498 41.1204 106.498 41.1204C106.526 41.0547 106.556 40.9872 106.584 40.9197C106.487 40.9497 106.389 40.9779 106.292 41.0079C106.292 41.0079 105.954 40.9497 105.84 40.9422C104.599 40.8879 102.737 41.2816 101.584 41.6922C100.644 41.9004 100.356 42.1666 99.5551 42.6241C99.4032 42.7122 99.0938 42.9297 99.0938 42.9297C98.9457 43.0816 98.7976 43.2354 98.6494 43.3854C98.5238 43.5148 98.4001 43.6441 98.2763 43.7716C97.2394 45.7535 97.1926 46.4154 97.4307 48.5904C97.4476 48.7423 97.5076 48.9691 97.4757 49.0891C97.4138 49.3197 97.3313 49.541 97.2338 49.7529C96.9882 46.9422 96.4669 44.2104 95.6963 41.5835C95.8201 41.1935 95.9663 40.7791 96.2176 40.5147C96.3151 40.4135 96.5007 40.2841 96.5007 40.2841C96.5007 40.2841 96.6376 40.2372 96.8194 40.226C97.0013 40.2147 97.5582 40.1473 97.6913 40.0573C97.8226 39.9691 98.6363 39.641 98.7676 39.5529C98.8988 39.4647 99.8232 38.8423 99.8232 38.8423C100.247 38.3848 100.811 37.8222 101.147 37.3066C101.543 36.6991 101.79 36.2304 101.923 35.5441C102.244 33.911 102.323 31.7341 102.424 31.0348C102.441 30.9129 102.418 30.7366 102.418 30.7366C102.431 30.6691 102.443 30.6016 102.456 30.5341C102.371 30.581 102.289 30.6297 102.204 30.6766C102.204 30.6766 101.882 30.6954 101.775 30.7141C100.622 30.926 98.9945 31.6872 98.0213 32.3097C97.202 32.7016 96.9919 33.0072 96.3544 33.5997C96.2326 33.7122 95.9944 33.9785 95.9944 33.9785C95.8913 34.151 95.7882 34.3235 95.6851 34.4941C95.597 34.6404 95.5107 34.7847 95.4226 34.9291C94.8901 36.971 94.9894 37.5916 95.672 39.5416C95.7207 39.6766 95.8238 39.8735 95.8201 39.9916C95.8051 40.421 95.7132 40.8335 95.5895 41.2385C94.8545 38.8066 93.9038 36.4685 92.7619 34.2448C92.8032 33.7854 92.8182 33.2191 93.0432 32.8423C93.1107 32.7279 93.2551 32.5704 93.2551 32.5704C93.2551 32.5704 93.3713 32.4972 93.5363 32.4485C93.7013 32.3997 94.2019 32.2197 94.3051 32.111C94.4082 32.0004 95.0888 31.526 95.1919 31.4154C95.2951 31.3066 96.015 30.5379 96.015 30.5379C96.3094 30.0241 96.7126 29.3885 96.9132 28.8391C97.1494 28.196 97.2788 27.7104 97.2582 27.0485C97.2076 25.4716 96.8232 23.4466 96.7688 22.781C96.7594 22.6647 96.6994 22.5072 96.6994 22.5072C96.6957 22.4416 96.6938 22.376 96.6901 22.3122C96.6226 22.3741 96.5551 22.436 96.4894 22.496C96.4894 22.496 96.1951 22.5804 96.1013 22.6198C95.0813 23.0604 93.7388 24.1066 92.9738 24.8866C92.3007 25.4191 92.1713 25.7472 91.7082 26.4297C91.62 26.5591 91.457 26.8554 91.457 26.8554C91.397 27.0354 91.337 27.2154 91.2788 27.3972C91.2301 27.5491 91.1795 27.701 91.1307 27.8547C91.0707 29.8516 91.2919 30.4029 92.3344 32.0585C92.4076 32.1747 92.5444 32.3341 92.5651 32.4429C92.6588 32.936 92.6438 33.4254 92.5932 33.9204C91.5263 31.8841 90.2982 29.9454 88.9238 28.1229C88.8882 27.701 88.7907 27.161 88.9332 26.7691C88.9745 26.6585 89.0757 26.4972 89.0757 26.4972C89.0757 26.4972 89.1657 26.4147 89.3026 26.3454C89.4395 26.276 89.8482 26.0341 89.9195 25.9235C89.9926 25.8091 90.5119 25.2841 90.5832 25.1697C90.6544 25.0554 91.1607 24.2641 91.1607 24.2641C91.3351 23.7673 91.5826 23.1429 91.6707 22.6291C91.7719 22.0272 91.8057 21.581 91.6801 21.0054C91.3782 19.6329 90.7107 17.921 90.5532 17.3473C90.5269 17.2479 90.4482 17.1185 90.4482 17.1185C90.4351 17.0604 90.4219 17.0041 90.4088 16.9479C90.3601 17.0135 90.3113 17.0772 90.2626 17.1429C90.2626 17.1429 90.0188 17.2647 89.9438 17.3135C89.1226 17.8666 88.1176 19.001 87.5738 19.8091C87.0713 20.3885 87.0132 20.696 86.7188 21.3691C86.6626 21.4966 86.5688 21.7835 86.5688 21.7835C86.5463 21.9504 86.5238 22.1191 86.5013 22.286C86.4844 22.4285 86.4657 22.5691 86.4451 22.7097C86.7207 24.4704 87.0038 24.9166 88.1888 26.1972C88.2713 26.2872 88.4176 26.4035 88.4532 26.4954C88.6257 26.9341 88.6894 27.3897 88.7232 27.8529C87.4332 26.1691 86.0194 24.5848 84.4969 23.1129L84.4688 23.0004C84.377 22.6104 84.1557 22.0854 84.2251 21.6747C84.2438 21.566 84.3076 21.4066 84.3076 21.4066C84.3076 21.4066 84.375 21.3166 84.4857 21.2304C84.5982 21.1441 84.9282 20.861 84.9732 20.7466C85.0201 20.6323 85.4007 20.0716 85.4476 19.9572C85.4926 19.8429 85.8188 19.0441 85.8188 19.0441C85.8938 18.566 86.0119 17.9622 86.0044 17.486C85.9969 16.9254 85.952 16.5166 85.7438 16.0179C85.2432 14.831 84.3563 13.3985 84.1182 12.9072C84.0769 12.821 83.9851 12.7179 83.9851 12.7179C83.9644 12.6691 83.9419 12.6204 83.9213 12.5716C83.8894 12.6372 83.8557 12.7047 83.822 12.7722C83.822 12.7722 83.6232 12.9241 83.5632 12.9804C82.9144 13.616 82.1963 14.8066 81.8419 15.626C81.4838 16.2316 81.4819 16.5185 81.3282 17.1747C81.2982 17.3004 81.2607 17.5722 81.2607 17.5722C81.2682 17.7279 81.2757 17.8816 81.2832 18.0372C81.2907 18.1685 81.2963 18.2997 81.3038 18.4291C81.8438 19.9722 82.1738 20.3266 83.4544 21.2829C83.5444 21.3504 83.6963 21.431 83.7451 21.5097C84.0094 21.9372 84.1482 22.4116 84.2663 22.8935C82.6782 21.3841 80.9738 19.9966 79.1663 18.746H79.1776C79.1495 18.6785 79.1195 18.6129 79.0913 18.5472C78.9395 18.206 78.6451 17.7579 78.6394 17.366C78.6394 17.2647 78.6695 17.1016 78.6695 17.1016C78.6695 17.1016 78.7163 17.0079 78.8045 16.9104C78.8926 16.811 79.1495 16.4922 79.172 16.3797C79.1963 16.2672 79.4513 15.6841 79.4738 15.5697C79.4963 15.4572 79.6594 14.6641 79.6594 14.6641C79.6463 14.2104 79.6538 13.631 79.5657 13.1922C79.4607 12.6766 79.3519 12.3072 79.0726 11.8816C78.4088 10.871 77.3419 9.69913 77.0401 9.28663C76.9876 9.2135 76.8845 9.13474 76.8845 9.13474C76.8563 9.09349 76.8282 9.05224 76.8 9.01099C76.7813 9.07661 76.7607 9.146 76.742 9.2135C76.742 9.2135 76.5844 9.38788 76.5394 9.44975C76.0501 10.1473 75.5907 11.3716 75.4032 12.1891C75.1782 12.8079 75.2251 13.0741 75.1951 13.7079C75.1895 13.8279 75.2025 14.0866 75.2025 14.0866C75.2363 14.2291 75.2701 14.3716 75.3038 14.5123C75.3319 14.6304 75.3619 14.7504 75.39 14.8704C76.1532 16.2016 76.5188 16.4735 77.8651 17.1373C77.9588 17.1841 78.1126 17.2329 78.1707 17.2966C78.5082 17.6679 78.7238 18.1123 78.9244 18.5641L78.9357 18.5847C77.2482 17.4354 75.4744 16.4041 73.6219 15.5041C74.8482 16.1735 76.0351 16.9085 77.1826 17.7035C76.9463 17.8141 76.6426 18.0222 76.3726 18.0316C76.3013 18.0354 76.1888 18.0147 76.1888 18.0147C76.1888 18.0147 76.1232 17.9829 76.0538 17.9247C75.9844 17.8647 75.7594 17.6922 75.6807 17.6791C75.6019 17.6641 75.1932 17.4972 75.1144 17.4822C75.0357 17.4672 74.4845 17.366 74.4845 17.366C74.1713 17.3829 73.7701 17.3866 73.4663 17.4541C73.1101 17.5347 72.857 17.6154 72.5663 17.816C71.8763 18.2923 71.0813 19.0479 70.8 19.2654C70.7494 19.3029 70.697 19.376 70.697 19.376C70.6688 19.3966 70.6407 19.4173 70.6125 19.436C70.6594 19.4491 70.7063 19.4604 70.7532 19.4735C70.7532 19.4735 70.877 19.5804 70.922 19.6122C71.4132 19.9404 72.2663 20.2385 72.8363 20.3566C73.2676 20.5047 73.4513 20.4691 73.89 20.4785C73.9725 20.4804 74.1526 20.4691 74.1526 20.4691C74.2501 20.4429 74.3476 20.4166 74.447 20.3923C74.5295 20.3698 74.6119 20.3491 74.6944 20.3285C75.6038 19.7791 75.7876 19.5222 76.2263 18.5791C76.2563 18.5135 76.2882 18.4066 76.3313 18.3654C76.5826 18.1254 76.8882 17.9716 77.1976 17.8235L77.2819 17.7785C77.4788 17.9154 77.6757 18.0541 77.8688 18.1947C80.2145 19.8072 82.3857 21.6635 84.3432 23.726H84.2701C83.8988 23.7279 83.3757 23.8179 83.0176 23.666C82.9238 23.6266 82.7907 23.5329 82.7907 23.5329C82.7907 23.5329 82.7232 23.4541 82.6688 23.3341C82.6144 23.2141 82.4269 22.856 82.3332 22.7904C82.2394 22.7247 81.81 22.2597 81.7182 22.1941C81.6244 22.1285 80.97 21.6654 80.97 21.6654C80.5519 21.4966 80.0288 21.2604 79.5957 21.1666C79.0857 21.056 78.7069 21.0091 78.2119 21.0935C77.0288 21.296 75.542 21.7985 75.047 21.9091C74.9588 21.9279 74.8482 21.9898 74.8482 21.9898C74.7976 21.9991 74.7488 22.0085 74.7019 22.016C74.7544 22.061 74.8088 22.1041 74.8613 22.1472C74.8613 22.1472 74.9551 22.361 74.9963 22.4266C75.4351 23.1504 76.3632 24.0522 77.0307 24.5472C77.5032 24.9991 77.7657 25.061 78.3263 25.3404C78.4332 25.3929 78.6732 25.4847 78.6732 25.4847C78.8157 25.511 78.9582 25.5372 79.0988 25.5635C79.2188 25.5841 79.3388 25.6066 79.4588 25.6291C80.972 25.4641 81.3638 25.241 82.502 24.281C82.5807 24.2135 82.6876 24.0935 82.7663 24.0672C83.2369 23.9079 83.7263 23.8891 84.2176 23.8854C84.2926 23.8816 84.3676 23.876 84.4444 23.8704L84.4519 23.8404C86.4994 26.0116 88.3107 28.4116 89.8482 30.9972L89.6757 30.9597C89.2501 30.8716 88.6294 30.8435 88.2563 30.581C88.1588 30.5135 88.0294 30.3747 88.0294 30.3747C88.0294 30.3747 87.9732 30.266 87.9413 30.116C87.9095 29.9679 87.7819 29.5085 87.6901 29.4091C87.6001 29.3116 87.2232 28.6741 87.1332 28.5748C87.0432 28.4754 86.4075 27.7835 86.4075 27.7835C85.9725 27.4872 85.4325 27.0879 84.9582 26.8741C84.4013 26.621 83.9795 26.4747 83.3907 26.4485C81.9882 26.3866 80.1619 26.5947 79.5657 26.6004C79.4607 26.6004 79.3182 26.6435 79.3182 26.6435C79.2601 26.6416 79.2019 26.6416 79.1438 26.6397C79.1944 26.7035 79.2451 26.7672 79.2957 26.831C79.2957 26.831 79.3519 27.0972 79.3819 27.1835C79.7063 28.1191 80.5445 29.381 81.1895 30.1141C81.6188 30.7479 81.9001 30.8848 82.4776 31.3423C82.5863 31.4285 82.8395 31.5935 82.8395 31.5935C82.9951 31.6591 83.1526 31.7229 83.3082 31.7885C83.4413 31.8429 83.5726 31.8973 83.7057 31.9516C85.4757 32.1373 85.9801 31.9779 87.5213 31.1604C87.6301 31.1041 87.7801 30.9916 87.8776 30.9804C88.4551 30.9147 89.0195 31.0141 89.582 31.1322C89.6701 31.1454 89.7563 31.1604 89.8444 31.1716L89.8969 31.0666C91.4382 33.6691 92.7001 36.4572 93.6451 39.3935C93.2063 39.2604 92.6382 39.1404 92.3101 38.8404C92.2126 38.7541 92.0907 38.5872 92.0907 38.5872C92.0907 38.5872 92.042 38.4616 92.027 38.2947C92.012 38.1279 91.9351 37.6141 91.8507 37.496C91.7644 37.376 91.4419 36.6354 91.3576 36.5173C91.2732 36.3972 90.675 35.5629 90.675 35.5629C90.2419 35.1822 89.7094 34.6779 89.2238 34.3797C88.6538 34.031 88.215 33.8173 87.5794 33.7085C86.0644 33.4535 84.0563 33.4366 83.4094 33.3616C83.2969 33.3485 83.1338 33.3766 83.1338 33.3766C83.0719 33.3673 83.0082 33.3579 82.9463 33.3485C82.9913 33.4235 83.0382 33.5004 83.0851 33.5754C83.0851 33.5754 83.1094 33.8716 83.1301 33.9691C83.3569 35.0266 84.0994 36.5079 84.6976 37.3891C85.0782 38.1335 85.367 38.3191 85.9295 38.8929C86.0363 39.0016 86.2894 39.2135 86.2894 39.2135C86.4488 39.3054 86.6101 39.3972 86.7713 39.4872C86.9082 39.5641 87.0432 39.641 87.1801 39.7179C89.0757 40.1547 89.6457 40.0497 91.425 39.371C91.5488 39.3222 91.7288 39.2229 91.8357 39.2229C92.4713 39.2285 93.0713 39.4123 93.6657 39.6148L93.7219 39.6316C94.8188 43.1172 95.4694 46.8054 95.6007 50.6266C95.1901 50.381 94.6538 50.1091 94.4007 49.7266C94.3257 49.6122 94.2432 49.4098 94.2432 49.4098C94.2432 49.4098 94.2263 49.2691 94.2563 49.0947C94.2844 48.9204 94.3407 48.3766 94.2844 48.2322C94.2282 48.0879 94.0932 47.246 94.037 47.1016C93.9807 46.9591 93.5888 45.9504 93.5888 45.9504C93.2457 45.4497 92.8332 44.7935 92.4151 44.3641C91.9238 43.8597 91.5338 43.5241 90.9113 43.2485C89.4301 42.5941 87.3844 42.0504 86.7432 41.8047C86.6307 41.7616 86.4582 41.7466 86.4582 41.7466C86.3963 41.7204 86.3344 41.6941 86.2726 41.6697C86.3007 41.7597 86.327 41.846 86.3551 41.9379C86.3551 41.9379 86.3026 42.2472 86.2988 42.3522C86.2538 43.4922 86.6251 45.2004 87.0076 46.2541C87.2026 47.1166 87.4501 47.381 87.8757 48.1122C87.9563 48.251 88.1569 48.5341 88.1569 48.5341C88.2976 48.6691 88.4382 48.8041 88.5788 48.9391C88.6988 49.0535 88.817 49.1679 88.9351 49.2804C90.7595 50.2216 91.3669 50.2629 93.3619 50.0341C93.5007 50.0191 93.7107 49.961 93.8194 49.991C94.4682 50.1616 95.0326 50.5066 95.5857 50.8685L95.6101 50.8816C95.6213 51.2791 95.6288 51.6785 95.6288 52.0798C95.6288 55.8879 95.1132 59.5741 94.1532 63.071C93.7969 62.681 93.3582 62.2329 93.2213 61.7604C93.1763 61.6104 93.1575 61.3591 93.1575 61.3591C93.1575 61.3591 93.1876 61.1997 93.2794 61.0179C93.3694 60.836 93.617 60.2566 93.6057 60.0804C93.5926 59.9022 93.7313 58.931 93.72 58.7547C93.7069 58.5766 93.6226 57.3354 93.6226 57.3354C93.4163 56.6679 93.1875 55.8072 92.8744 55.1904C92.5069 54.4666 92.1901 53.966 91.6013 53.4522C90.1988 52.226 88.1345 50.9304 87.5138 50.441C87.4051 50.3548 87.2213 50.2798 87.2213 50.2798C87.1613 50.231 87.1032 50.1804 87.0451 50.1297C87.0451 50.2385 87.0432 50.3454 87.0432 50.4541C87.0432 50.4541 86.8801 50.7766 86.8388 50.8891C86.4001 52.1266 86.2238 54.131 86.2819 55.421C86.2032 56.4335 86.3832 56.8085 86.6007 57.7591C86.6419 57.9391 86.7676 58.3197 86.7676 58.3197C86.8745 58.5166 86.9851 58.7135 87.0938 58.9085C87.1857 59.0754 87.2776 59.2404 87.3676 59.4054C89.0494 61.0647 89.7057 61.316 91.9763 61.7472C92.1338 61.7772 92.3832 61.7866 92.4938 61.856C93.122 62.2498 93.6095 62.7916 94.0763 63.3541C92.9701 67.2673 91.3051 70.9385 89.1695 74.276C89.1826 73.9123 89.2219 73.5485 89.3119 73.1866C89.3457 73.0535 89.5257 72.8679 89.6232 72.731C91.0182 70.7679 91.3276 70.106 91.3913 67.6479C91.3407 67.4566 91.2901 67.2672 91.2394 67.076C91.1794 66.8491 91.1176 66.6241 91.0576 66.3991C91.0576 66.3991 90.8776 66.0241 90.7782 65.8591C90.2551 64.9891 90.1201 64.5785 89.3288 63.8754C88.4419 62.8647 86.8651 61.4866 85.6426 60.8754C85.5301 60.8172 85.1757 60.6954 85.1757 60.6954C85.097 60.6147 85.0201 60.5341 84.9413 60.4535C84.9338 60.5341 84.9244 60.6147 84.9169 60.6935C84.9169 60.6935 84.8326 60.8829 84.8138 61.0254C84.7013 61.841 84.0863 64.3029 83.9176 66.236C83.8463 67.046 83.9719 67.6516 84.2176 68.4597C84.4276 69.1479 84.8757 69.9597 85.2038 70.6085C85.2038 70.6085 86.0363 71.6022 86.1563 71.7448C86.2763 71.8873 87.0807 72.5173 87.1988 72.6579C87.3188 72.8004 87.9207 73.0554 88.1194 73.1266C88.3201 73.1979 88.457 73.2954 88.457 73.2954C88.457 73.2954 88.6238 73.4979 88.6988 73.6441C88.847 73.9291 88.9013 74.2891 88.9238 74.6548C86.2913 78.6766 82.9744 82.1998 79.1419 85.0554C79.1175 84.4835 79.0857 83.8347 79.2957 83.3566C79.3669 83.1935 79.5338 82.9629 79.5338 82.9629C79.5338 82.9629 79.6763 82.8485 79.8882 82.7566C80.1001 82.6647 80.7357 82.346 80.8538 82.1829C80.9738 82.0216 81.8007 81.281 81.9188 81.1179C82.0388 80.9566 82.8694 79.8204 82.8694 79.8204C83.1769 79.0929 83.6082 78.1816 83.7863 77.4222C83.9944 76.5297 84.0882 75.866 83.9551 74.9904C83.6345 72.9072 82.7963 70.2841 82.6144 69.4085C82.5844 69.2547 82.4794 69.056 82.4794 69.056C82.4644 68.9697 82.4494 68.8835 82.4344 68.7991C82.3557 68.891 82.2769 68.9829 82.1982 69.0766C82.1982 69.0766 81.8232 69.236 81.7051 69.3054C80.4245 70.0535 78.8119 71.6585 77.9232 72.8154C77.115 73.6329 76.9969 74.0885 76.4944 75.0672C76.3988 75.2529 76.2301 75.671 76.2301 75.671C76.1813 75.9204 76.1307 76.1697 76.082 76.4172C76.0407 76.6272 75.9994 76.8372 75.9582 77.0472C76.2019 79.7079 76.5844 80.4035 78.2363 82.4304C78.3507 82.571 78.5588 82.7604 78.6038 82.9029C78.8494 83.6679 78.8851 84.4572 78.8813 85.2522C75.4988 87.7291 71.7244 89.6866 67.6688 91.016L67.6726 91.0085C68.0494 90.1722 68.4544 89.351 69.0844 88.6685C69.1913 88.5541 69.4763 88.4641 69.6526 88.3797C72.1557 87.1647 72.8363 86.666 74.265 84.2097C74.3194 83.9885 74.3738 83.7672 74.4282 83.5479C74.4919 83.2854 74.5557 83.021 74.6194 82.7604C74.6194 82.7604 74.6457 82.2804 74.6363 82.0573C74.5895 80.8854 74.6794 80.3941 74.2688 79.2429C73.9294 77.726 73.097 75.4554 72.197 74.1579C72.1126 74.0379 71.822 73.7154 71.822 73.7154C71.7863 73.5898 71.7526 73.466 71.7188 73.3404C71.6663 73.4154 71.6138 73.4941 71.5594 73.5691C71.5594 73.5691 71.37 73.7135 71.2707 73.8485C70.7044 74.6116 68.7169 76.766 67.4719 78.6316C66.9488 79.4135 66.7407 80.096 66.5419 81.0523C66.3732 81.866 66.3788 82.9366 66.3488 83.7785C66.3488 83.7785 66.6413 85.2485 66.6826 85.4585C66.7238 85.6685 67.1907 86.7522 67.232 86.9622C67.2732 87.1722 67.7419 87.7647 67.9069 87.9485C68.0701 88.1304 68.1544 88.3066 68.1544 88.3066C68.1544 88.3066 68.2107 88.6047 68.207 88.7941C68.192 89.5197 67.6444 90.3447 67.3576 90.9785L67.2825 91.1454C63.4744 92.351 59.4226 92.9997 55.2226 92.9997C51.0226 92.9997 46.6126 92.2891 42.6563 90.9804C42.3694 90.3466 41.8201 89.5216 41.8069 88.796C41.8032 88.6066 41.8595 88.3085 41.8595 88.3085C41.8595 88.3085 41.9438 88.1341 42.107 87.9504C42.2701 87.7666 42.7388 87.1741 42.7819 86.9641C42.8232 86.7522 43.2901 85.6685 43.3313 85.4604C43.3725 85.2504 43.6651 83.7804 43.6651 83.7804C43.6351 82.9404 43.6407 81.8679 43.4719 81.0541C43.2732 80.0979 43.0651 79.4154 42.5419 78.6335C41.2988 76.7679 39.3113 74.6116 38.7451 73.8504C38.6457 73.7154 38.4544 73.571 38.4544 73.571C38.4019 73.4941 38.3495 73.4173 38.297 73.3423C38.2613 73.4679 38.2276 73.5916 38.1919 73.7173C38.1919 73.7173 37.9013 74.0397 37.8188 74.1598C36.9188 75.4573 36.0844 77.7298 35.7451 79.2448C35.3344 80.396 35.4244 80.8891 35.3776 82.0591C35.3682 82.2822 35.3945 82.7623 35.3945 82.7623C35.4582 83.0247 35.522 83.2872 35.5857 83.5497C35.6401 83.7691 35.6944 83.9922 35.7488 84.2116C37.1776 86.6679 37.8601 87.1685 40.3613 88.3816C40.5357 88.466 40.8226 88.556 40.9295 88.6704C41.5201 89.3098 41.9119 90.071 42.2682 90.851C38.2332 89.4691 34.4851 87.4591 31.1326 84.9372C31.1401 84.251 31.1963 83.5704 31.4082 82.9066C31.4532 82.7641 31.6613 82.5748 31.7776 82.4341C33.4276 80.4072 33.8101 79.7097 34.0557 77.051C34.0144 76.841 33.9732 76.631 33.9319 76.421C33.8813 76.1735 33.8326 75.9241 33.7819 75.6747C33.7819 75.6747 33.6132 75.2566 33.5176 75.071C33.0132 74.0922 32.8951 73.6366 32.0888 72.8191C31.1982 71.6604 29.5876 70.0573 28.3069 69.3091C28.1888 69.2398 27.8138 69.0804 27.8138 69.0804C27.735 68.9866 27.6563 68.8947 27.5775 68.8029C27.5625 68.8872 27.5475 68.9735 27.5344 69.0597C27.5344 69.0597 27.4294 69.2585 27.3976 69.4122C27.2176 70.2879 26.3776 72.911 26.0588 74.9941C25.9257 75.8679 26.0176 76.5316 26.2276 77.426C26.4057 78.1854 26.8351 79.0966 27.1445 79.8241C27.1445 79.8241 27.975 80.9604 28.095 81.1216C28.2132 81.2848 29.0401 82.0254 29.1582 82.1866C29.2763 82.3497 29.9119 82.6685 30.1238 82.7604C30.3357 82.8522 30.4763 82.9666 30.4763 82.9666C30.4763 82.9666 30.6432 83.1991 30.7145 83.3604C30.887 83.7522 30.8963 84.2622 30.8813 84.746C27.0488 81.8135 23.7507 78.2079 21.1557 74.1016C21.1913 73.9366 21.2401 73.7829 21.3113 73.646C21.3882 73.5016 21.5532 73.2972 21.5532 73.2972C21.5532 73.2972 21.6901 73.1998 21.8907 73.1285C22.0913 73.0573 22.6932 72.8023 22.8132 72.6598C22.9313 72.5173 23.7357 71.8873 23.8557 71.7466C23.9738 71.6041 24.8082 70.6104 24.8082 70.6104C25.1345 69.9616 25.5845 69.1497 25.7945 68.4616C26.0401 67.6535 26.1657 67.0498 26.0944 66.2379C25.9257 64.3029 25.3126 61.841 25.2001 61.0272C25.1794 60.8847 25.095 60.6954 25.095 60.6954C25.0875 60.6166 25.0782 60.536 25.0707 60.4554C24.9919 60.536 24.9151 60.6166 24.8344 60.6972C24.8344 60.6972 24.4801 60.821 24.3676 60.8772C23.1451 61.4866 21.5682 62.8647 20.6813 63.8772C19.8901 64.5804 19.7532 64.991 19.232 65.861C19.1326 66.026 18.9525 66.401 18.9525 66.401C18.8925 66.626 18.8326 66.851 18.7707 67.0779C18.7201 67.2691 18.6695 67.4585 18.6188 67.6497C18.647 68.6754 18.7144 69.3879 18.8888 70.0123C17.8088 67.7735 16.9238 65.4204 16.2582 62.9735C16.6313 62.5516 17.0326 62.1598 17.5163 61.856C17.6269 61.7866 17.8763 61.7772 18.0338 61.7472C20.3063 61.3179 20.9607 61.0647 22.6426 59.4054C22.7345 59.2404 22.8263 59.0735 22.9182 58.9085C23.0269 58.7116 23.1338 58.5166 23.2426 58.3197C23.2426 58.3197 23.3682 57.941 23.4075 57.7591C23.625 56.8104 23.8051 56.4335 23.7245 55.421C23.7845 54.131 23.6082 52.1266 23.1676 50.8891C23.1282 50.7766 22.9632 50.4541 22.9632 50.4541C22.9632 50.3454 22.9632 50.2385 22.9632 50.1297C22.9051 50.1804 22.8451 50.231 22.787 50.2798C22.787 50.2798 22.6032 50.3548 22.4944 50.441C21.8738 50.9304 19.8094 52.226 18.4051 53.4522C17.8163 53.966 17.5013 54.4666 17.1338 55.1904C16.8207 55.8072 16.5919 56.6679 16.3876 57.3354C16.3876 57.3354 16.3013 58.5785 16.2882 58.7547C16.2751 58.9329 16.4138 59.9041 16.4026 60.0804C16.3894 60.2566 16.6369 60.836 16.7288 61.0179C16.8188 61.1997 16.8507 61.3591 16.8507 61.3591C16.8507 61.3591 16.8301 61.6104 16.7851 61.7604C16.6895 62.0923 16.4457 62.411 16.1851 62.7054C15.287 59.3172 14.8069 55.7547 14.8069 52.0798C14.8069 51.5848 14.8163 51.0935 14.8332 50.6041C15.2569 50.3454 15.6976 50.1185 16.1851 49.991C16.2938 49.961 16.5038 50.0172 16.6426 50.0341C18.6395 50.2647 19.2469 50.2235 21.0694 49.2804C21.1894 49.166 21.3076 49.0516 21.4257 48.9391C21.5663 48.806 21.707 48.6691 21.8476 48.5341C21.8476 48.5341 22.0482 48.251 22.1307 48.1122C22.5563 47.381 22.8019 47.1147 22.9969 46.2541C23.3794 45.1985 23.7507 43.4922 23.7057 42.3522C23.7001 42.2472 23.6494 41.9379 23.6494 41.9379C23.6757 41.846 23.7038 41.7597 23.7301 41.6697C23.6682 41.696 23.6063 41.7223 23.5463 41.7466C23.5463 41.7466 23.3738 41.7616 23.2613 41.8047C22.6201 42.0504 20.5725 42.5941 19.0932 43.2485C18.4707 43.5241 18.0807 43.8597 17.5895 44.3641C17.1713 44.7935 16.7588 45.4497 16.4157 45.9504C16.4157 45.9504 16.0238 46.9591 15.9676 47.1016C15.9113 47.246 15.7763 48.0879 15.72 48.2322C15.6638 48.3766 15.7201 48.9204 15.7482 49.0947C15.7763 49.2691 15.7613 49.4098 15.7613 49.4098C15.7613 49.4098 15.6807 49.6141 15.6038 49.7266C15.4351 49.9816 15.1426 50.186 14.8426 50.3679C14.9963 46.5822 15.6582 42.9297 16.7607 39.476C17.2163 39.3335 17.6813 39.2266 18.1651 39.2229C18.2738 39.2229 18.452 39.3222 18.5757 39.371C20.3551 40.0497 20.9232 40.1566 22.8207 39.7179C22.9576 39.641 23.0926 39.5641 23.2294 39.4872C23.3907 39.3972 23.5519 39.3054 23.7113 39.2135C23.7113 39.2135 23.9626 39.0016 24.0694 38.8929C24.6319 38.3191 24.9207 38.1335 25.3013 37.3891C25.8994 36.5079 26.6438 35.0266 26.8688 33.9691C26.8895 33.8716 26.9138 33.5754 26.9138 33.5754C26.9607 33.5004 27.0057 33.4235 27.0526 33.3485C26.9907 33.3579 26.927 33.3673 26.8651 33.3766C26.8651 33.3766 26.7038 33.3504 26.5895 33.3616C25.9426 33.4366 23.9345 33.4554 22.4195 33.7085C21.7838 33.8154 21.347 34.031 20.7751 34.3797C20.2895 34.6779 19.757 35.1822 19.3238 35.5629C19.3238 35.5629 18.7276 36.3972 18.6413 36.5173C18.5569 36.6373 18.2326 37.376 18.1482 37.496C18.0638 37.6141 17.9869 38.1279 17.9719 38.2947C17.9569 38.4616 17.9101 38.5872 17.9101 38.5872C17.9101 38.5872 17.7882 38.756 17.6907 38.8404C17.4732 39.0391 17.1507 39.1572 16.8301 39.2566C17.7638 36.3879 19.0013 33.6616 20.5069 31.1135C21.0413 31.0029 21.5757 30.9166 22.1251 30.9804C22.2226 30.9916 22.3744 31.1041 22.4813 31.1604C24.0226 31.9779 24.527 32.1373 26.297 31.9516C26.4282 31.8973 26.5613 31.8429 26.6926 31.7885C26.85 31.7247 27.0057 31.6591 27.1613 31.5935C27.1613 31.5935 27.4126 31.4285 27.5232 31.3423C28.0988 30.8848 28.3819 30.7479 28.8113 30.1141C29.4544 29.381 30.2945 28.1191 30.617 27.1835C30.647 27.0972 30.7032 26.831 30.7032 26.831C30.7538 26.7672 30.8045 26.7035 30.8551 26.6397C30.797 26.6416 30.7388 26.6416 30.6807 26.6435C30.6807 26.6435 30.5382 26.6004 30.4332 26.6004C29.8388 26.5947 28.0126 26.3885 26.6082 26.4485C26.0194 26.4747 25.5976 26.621 25.0388 26.8741C24.5645 27.0897 24.0245 27.4891 23.5895 27.7835C23.5895 27.7835 22.9538 28.4754 22.8638 28.5748C22.7738 28.6741 22.3969 29.3116 22.3069 29.4091C22.2151 29.5085 22.0894 29.966 22.0557 30.116C22.0238 30.2679 21.9657 30.3747 21.9657 30.3747C21.9657 30.3747 21.8363 30.5135 21.7388 30.581C21.4501 30.7835 21.0113 30.8454 20.6307 30.9054C22.1457 28.3722 23.9251 26.0191 25.9276 23.8854C26.3682 23.891 26.8032 23.921 27.2269 24.0635C27.3057 24.0897 27.4126 24.2097 27.4913 24.2772C28.6313 25.2354 29.0232 25.4604 30.5344 25.6254C30.6544 25.6029 30.7745 25.5822 30.8945 25.5597C31.037 25.5335 31.1795 25.5073 31.322 25.481C31.322 25.481 31.5619 25.3891 31.6688 25.3366C32.2313 25.0572 32.492 24.9954 32.9645 24.5435C33.632 24.0485 34.5601 23.1466 34.9988 22.4229C35.0401 22.3572 35.1338 22.1435 35.1338 22.1435C35.1882 22.1004 35.2407 22.0554 35.2951 22.0123C35.2463 22.0048 35.1976 21.9935 35.1488 21.986C35.1488 21.986 35.0363 21.9241 34.9501 21.9054C34.4532 21.7947 32.9663 21.2922 31.7851 21.0897C31.2882 21.0054 30.9094 21.0522 30.3994 21.1629C29.9644 21.2585 29.4413 21.4929 29.0251 21.6616C29.0251 21.6616 28.3707 22.1247 28.277 22.1904C28.1832 22.256 27.7538 22.721 27.6601 22.7866C27.5663 22.8523 27.3788 23.2122 27.3244 23.3304C27.2701 23.4504 27.2025 23.5291 27.2025 23.5291C27.2025 23.5291 27.0694 23.621 26.9757 23.6622C26.7188 23.771 26.3757 23.756 26.0663 23.7372C28.0295 21.6672 30.2044 19.8054 32.5576 18.1891C32.6907 18.0916 32.8257 17.996 32.9626 17.9004C33.2138 18.0241 33.4557 18.1666 33.6638 18.3616C33.707 18.4029 33.7369 18.5097 33.7688 18.5754C34.2076 19.5185 34.3913 19.7754 35.3007 20.3248C35.3832 20.3454 35.4657 20.3679 35.5482 20.3885C35.6457 20.4129 35.7451 20.4391 35.8426 20.4654C35.8426 20.4654 36.0226 20.4766 36.1051 20.4747C36.5438 20.4654 36.7257 20.501 37.1588 20.3529C37.7288 20.2347 38.5819 19.9366 39.0713 19.6085C39.1163 19.5766 39.2401 19.4697 39.2401 19.4697C39.287 19.4585 39.3338 19.4454 39.3807 19.4323C39.3526 19.4135 39.3244 19.3929 39.2963 19.3722C39.2963 19.3722 39.2438 19.301 39.1951 19.2616C38.912 19.046 38.1188 18.2885 37.4288 17.8122C37.1382 17.6116 36.8851 17.531 36.5288 17.4504C36.2251 17.3829 35.8238 17.3791 35.5107 17.3622C35.5107 17.3622 34.9595 17.4635 34.8807 17.4785C34.802 17.4935 34.3932 17.6604 34.3145 17.6754C34.2357 17.6885 34.0107 17.861 33.9413 17.921C33.872 17.981 33.8063 18.011 33.8063 18.011C33.8063 18.011 33.6938 18.0298 33.6244 18.0279C33.4407 18.0223 33.242 17.9247 33.0601 17.8272C34.2601 16.9835 35.5088 16.2072 36.8026 15.5004L36.8119 15.5135ZM38.4994 14.8047C38.7225 14.8535 39.0226 14.9735 39.2551 14.9266C39.3169 14.9154 39.4069 14.8779 39.4069 14.8779C39.4069 14.8779 39.4576 14.8385 39.5044 14.7747C39.5513 14.7091 39.7088 14.5197 39.7744 14.4916C39.8382 14.4635 40.1532 14.2404 40.2169 14.2141C40.2807 14.186 40.7307 13.9929 40.7307 13.9929C41.0026 13.9441 41.3438 13.871 41.6157 13.8691C41.9344 13.8672 42.1669 13.8879 42.4519 14.0004C43.1326 14.2704 43.9576 14.7579 44.2388 14.8873C44.2894 14.9098 44.3476 14.9622 44.3476 14.9622C44.3757 14.9735 44.4038 14.9847 44.4319 14.996C44.3944 15.0166 44.3569 15.0354 44.3194 15.0541C44.3194 15.0541 44.2351 15.1704 44.2032 15.2041C43.8507 15.5791 43.1813 15.9991 42.72 16.2129C42.3807 16.4229 42.2176 16.4266 41.8463 16.5222C41.7769 16.5391 41.6213 16.5635 41.6213 16.5635C41.5332 16.5616 41.4451 16.5597 41.357 16.556C41.282 16.5541 41.2088 16.5504 41.1338 16.5485C40.2526 16.2597 40.0463 16.076 39.4875 15.3597C39.4482 15.3091 39.3994 15.2247 39.3563 15.1985C39.0957 15.0429 38.8051 14.9697 38.5126 14.906C38.4694 14.8929 38.4244 14.8816 38.3794 14.8685C38.3794 14.8366 38.3757 14.8066 38.3757 14.7766C38.4188 14.7841 38.46 14.7954 38.5013 14.8029L38.4994 14.8047ZM20.7619 73.451C20.5294 73.0666 20.3007 72.6785 20.0794 72.2848C20.1769 72.4273 20.282 72.5754 20.3926 72.731C20.4901 72.8679 20.6701 73.0535 20.7019 73.1866C20.7244 73.2747 20.7432 73.3629 20.7601 73.451H20.7619ZM36.4538 15.0991C36.6207 14.8666 36.9113 14.576 36.9751 14.2835C36.9938 14.2066 36.9938 14.081 36.9938 14.081C36.9938 14.081 36.9732 14.0022 36.9226 13.916C36.8719 13.8279 36.7294 13.5504 36.7294 13.4622C36.7294 13.3741 36.6301 12.8979 36.6301 12.8079C36.6301 12.7179 36.6301 12.0991 36.6301 12.0991C36.7107 11.7598 36.7951 11.3266 36.9301 11.0097C37.0894 10.6404 37.2282 10.3798 37.5038 10.1041C38.1601 9.44975 39.1407 8.73912 39.4313 8.47662C39.4838 8.42974 39.572 8.38662 39.572 8.38662C39.6001 8.36037 39.6263 8.33224 39.6544 8.30786C39.6582 8.36036 39.662 8.41475 39.6657 8.46725C39.6657 8.46725 39.7576 8.62288 39.7819 8.67725C40.0407 9.27725 40.1944 10.2635 40.2076 10.9066C40.2807 11.4072 40.2038 11.5985 40.127 12.0766C40.112 12.1666 40.0632 12.3597 40.0632 12.3597C40.0163 12.461 39.9694 12.5622 39.9207 12.6635C39.8813 12.7479 39.8401 12.8323 39.8007 12.9185C39.0226 13.7979 38.7057 13.9441 37.5938 14.2329C37.517 14.2535 37.3932 14.2647 37.3407 14.3041C37.0294 14.5291 36.7988 14.8291 36.5794 15.1347C36.5419 15.1816 36.5063 15.2266 36.4688 15.2716C36.4313 15.2585 36.3957 15.2454 36.3601 15.2304C36.3919 15.1854 36.4238 15.1423 36.4557 15.0973L36.4538 15.0991ZM30.9113 18.5566C31.0651 18.2154 31.3576 17.7672 31.3632 17.3754C31.3632 17.2741 31.3332 17.111 31.3332 17.111C31.3332 17.111 31.2882 17.0172 31.1982 16.9197C31.1101 16.8204 30.8551 16.5016 30.8307 16.3891C30.8082 16.2766 30.5513 15.6935 30.5288 15.5791C30.5063 15.4666 30.3413 14.6735 30.3413 14.6735C30.3545 14.2197 30.3469 13.6404 30.4369 13.2016C30.5419 12.686 30.6507 12.3166 30.9301 11.891C31.5957 10.8804 32.6607 9.70849 32.9626 9.29599C33.017 9.22286 33.1182 9.14413 33.1182 9.14413C33.1463 9.10288 33.1744 9.06162 33.2025 9.02037C33.2213 9.086 33.2401 9.15536 33.2607 9.22286C33.2607 9.22286 33.4201 9.39724 33.4651 9.45911C33.9544 10.1566 34.4138 11.381 34.6013 12.1985C34.8282 12.8172 34.7813 13.0835 34.8094 13.7173C34.8151 13.8373 34.8038 14.096 34.8038 14.096C34.7701 14.2385 34.7363 14.381 34.7025 14.5216C34.6744 14.6397 34.6444 14.7597 34.6163 14.8797C33.8532 16.211 33.4876 16.4829 32.1394 17.1466C32.0457 17.1935 31.892 17.2422 31.8338 17.306C31.4963 17.6772 31.2807 18.1216 31.0801 18.5735C31.0445 18.641 31.0088 18.7085 30.9751 18.776C30.9244 18.7685 30.8738 18.761 30.8232 18.7535C30.8532 18.6879 30.8813 18.6222 30.9094 18.5547L30.9113 18.5566ZM25.5338 23.0079C25.6276 22.6179 25.8488 22.0929 25.7776 21.6823C25.7588 21.5735 25.6932 21.4141 25.6932 21.4141C25.6932 21.4141 25.6275 21.3241 25.515 21.2379C25.4044 21.1516 25.0744 20.8685 25.0276 20.7541C24.9807 20.6397 24.6001 20.0791 24.5551 19.9647C24.5101 19.8504 24.1838 19.0516 24.1838 19.0516C24.1088 18.5735 23.9888 17.9697 23.9963 17.4935C24.0057 16.9329 24.0488 16.5241 24.2588 16.0254C24.7594 14.8385 25.6463 13.406 25.8826 12.9147C25.9238 12.8285 26.0157 12.7254 26.0157 12.7254C26.0363 12.6766 26.0588 12.6279 26.0794 12.5791C26.1113 12.6447 26.1451 12.7123 26.1788 12.7798C26.1788 12.7798 26.3776 12.9316 26.4376 12.9879C27.0863 13.6235 27.8026 14.8141 28.1588 15.6335C28.5151 16.2391 28.5188 16.526 28.6707 17.1823C28.6988 17.3079 28.7363 17.5798 28.7363 17.5798C28.7288 17.7354 28.7213 17.8891 28.7138 18.0447C28.7063 18.176 28.7007 18.3072 28.6932 18.4366C28.1532 19.9797 27.8232 20.3341 26.5407 21.2904C26.4526 21.3579 26.2988 21.4385 26.252 21.5173C25.9707 21.971 25.8319 22.4791 25.7082 22.991C25.6857 23.0679 25.6613 23.1447 25.6388 23.2235C25.5844 23.2235 25.5301 23.2273 25.4757 23.2291C25.4944 23.156 25.5113 23.081 25.5282 23.006L25.5338 23.0079ZM21.0694 28.2448C21.0919 27.8098 21.225 27.2022 21.0676 26.7747C21.0263 26.6641 20.925 26.5029 20.925 26.5029C20.925 26.5029 20.8369 26.4204 20.6982 26.351C20.5613 26.2816 20.1507 26.0397 20.0794 25.9291C20.0082 25.8147 19.4888 25.2898 19.4157 25.1754C19.3426 25.061 18.8382 24.2697 18.8382 24.2697C18.6638 23.7729 18.4163 23.1485 18.3282 22.6347C18.227 22.0329 18.1932 21.5866 18.3188 21.011C18.6188 19.6385 19.2882 17.9266 19.4457 17.3529C19.4738 17.2535 19.5526 17.1241 19.5526 17.1241C19.5657 17.066 19.5788 17.0097 19.5919 16.9535C19.6407 17.0191 19.6895 17.0829 19.7382 17.1485C19.7382 17.1485 19.9819 17.2704 20.0569 17.3191C20.8782 17.8722 21.885 19.0066 22.4269 19.8147C22.9294 20.3941 22.9894 20.7016 23.2838 21.3747C23.3401 21.5022 23.4338 21.7891 23.4338 21.7891C23.4563 21.956 23.4788 22.1248 23.5013 22.2916C23.52 22.4341 23.5388 22.5748 23.5576 22.7154C23.2819 24.476 22.9988 24.9222 21.8157 26.2029C21.7332 26.2929 21.5869 26.4091 21.5494 26.501C21.3357 27.0429 21.2888 27.6147 21.2588 28.1885C21.2494 28.2747 21.2401 28.3647 21.2307 28.451C21.1726 28.4641 21.1145 28.4754 21.0582 28.4885C21.062 28.4041 21.0657 28.3216 21.0713 28.2391L21.0694 28.2448ZM71.5238 14.8047C71.5651 14.7954 71.6082 14.786 71.6513 14.7785C71.6494 14.8104 71.6476 14.8404 71.6457 14.8704C71.6007 14.8816 71.5576 14.8948 71.5126 14.9079C71.2182 14.9716 70.9294 15.0447 70.6688 15.2004C70.6238 15.2266 70.5751 15.311 70.5376 15.3616C69.9769 16.0779 69.7726 16.2616 68.8894 16.5504C68.8144 16.5523 68.7413 16.5541 68.6663 16.5579C68.5782 16.5597 68.4901 16.5635 68.402 16.5654C68.402 16.5654 68.2463 16.541 68.1769 16.5241C67.8057 16.4285 67.6426 16.4247 67.3032 16.2147C66.8419 16.001 66.1726 15.581 65.8182 15.206C65.7863 15.1704 65.7019 15.056 65.7019 15.056C65.6644 15.0372 65.627 15.0166 65.5895 14.9979C65.6176 14.9866 65.6438 14.9735 65.6738 14.9641C65.6738 14.9641 65.7338 14.9135 65.7825 14.8891C66.0657 14.7598 66.8888 14.2722 67.5694 14.0022C67.8544 13.8897 68.0869 13.8691 68.4075 13.871C68.6794 13.871 69.0207 13.9479 69.2907 13.9948C69.2907 13.9948 69.7407 14.1879 69.8045 14.216C69.8682 14.2441 70.1832 14.4654 70.2469 14.4935C70.3107 14.5216 70.4682 14.711 70.515 14.7766C70.5619 14.8404 70.6125 14.8797 70.6125 14.8797C70.6125 14.8797 70.7044 14.9191 70.7644 14.9285C70.9969 14.9735 71.2988 14.8554 71.5201 14.8066L71.5238 14.8047ZM73.5713 15.0991C73.6032 15.1441 73.6351 15.1872 73.6669 15.2322C73.6294 15.2472 73.5938 15.2604 73.5563 15.2735C73.5207 15.2285 73.4832 15.1835 73.4457 15.1366C73.2244 14.8291 72.9938 14.5291 72.6826 14.306C72.6301 14.2666 72.5082 14.2554 72.4295 14.2347C71.3176 13.946 71.0007 13.7998 70.2207 12.9204C70.1813 12.8341 70.1401 12.7516 70.1007 12.6654C70.0538 12.5641 70.0069 12.4629 69.9601 12.3616C69.9601 12.3616 69.9095 12.1685 69.8963 12.0785C69.8195 11.6004 69.7425 11.4072 69.8157 10.9085C69.8307 10.2654 69.9826 9.27911 70.2413 8.67911C70.2657 8.62473 70.3557 8.46911 70.3557 8.46911C70.3595 8.41661 70.3632 8.36224 70.367 8.30974C70.3951 8.33599 70.4213 8.36225 70.4494 8.3885C70.4494 8.3885 70.5376 8.43162 70.5901 8.47849C70.8826 8.74099 71.8632 9.45163 72.5176 10.106C72.7932 10.3798 72.932 10.6404 73.0913 11.0116C73.2263 11.3285 73.3107 11.7616 73.3913 12.101C73.3913 12.101 73.3913 12.7197 73.3913 12.8097C73.3913 12.8979 73.2919 13.376 73.2919 13.4641C73.2919 13.5522 73.1513 13.8316 73.1007 13.9179C73.0482 14.0041 73.0294 14.0829 73.0294 14.0829C73.0294 14.0829 73.0294 14.2085 73.0482 14.2854C73.1119 14.5779 73.4025 14.8666 73.5694 15.101L73.5713 15.0991Z" fill="#FFBC00"/>
<path fill-rule="evenodd" clip-rule="evenodd" d="M46.3303 4.68536C47.4591 6.78348 48.271 8.84035 48.3329 10.8016C49.3285 10.6141 50.3804 10.4716 51.4735 10.3779L50.9841 6.54161H51.4022L51.8878 10.346C52.7016 10.2878 53.536 10.256 54.3872 10.256C54.526 10.256 54.6666 10.256 54.8035 10.2579V5.5891H55.2216V10.2654C56.2172 10.2897 57.1885 10.3535 58.126 10.4566L58.6247 6.53973H59.0428L58.5385 10.5035C59.6616 10.6422 60.7322 10.8353 61.7335 11.0753C61.7222 9.04097 62.551 6.89786 63.7247 4.70973C63.8522 4.81661 64.0172 4.88222 64.1972 4.88222C64.6022 4.88222 64.9304 4.55223 64.9304 4.14723C64.9304 3.74223 64.6022 3.41222 64.1972 3.41222C63.7922 3.41222 63.4622 3.74036 63.4622 4.14723C63.4622 4.35161 63.5447 4.53536 63.6797 4.66849C61.5047 6.95224 59.9297 7.36847 59.4722 4.30097C59.5097 4.3066 59.5472 4.31036 59.5885 4.31036C59.9935 4.31036 60.3216 3.98035 60.3216 3.57535C60.3216 3.17035 59.9935 2.84036 59.5885 2.84036C59.1835 2.84036 58.8535 3.16847 58.8535 3.57535C58.8535 3.8791 59.0391 4.13972 59.3016 4.25222C57.7379 6.64472 56.431 6.23409 55.3997 2.81972C55.8853 2.62847 56.2285 2.15784 56.2285 1.60284C56.2285 0.880969 55.6435 0.297852 54.9235 0.297852C54.2035 0.297852 53.6185 0.882844 53.6185 1.60284C53.6185 2.23097 54.061 2.75411 54.6497 2.87973C53.6185 6.24536 52.3153 6.63348 50.7572 4.23723C51.0028 4.11723 51.1716 3.86785 51.1716 3.57722C51.1716 3.17035 50.8435 2.84224 50.4385 2.84224C50.0335 2.84224 49.7053 3.17035 49.7053 3.57722C49.7053 3.9841 50.0335 4.31223 50.4385 4.31223C50.4929 4.31223 50.5472 4.30661 50.5978 4.29349C50.1403 7.37974 48.556 6.95222 46.3679 4.64784C46.4897 4.51659 46.5628 4.34036 46.5628 4.14723C46.5628 3.74223 46.2328 3.41222 45.8278 3.41222C45.4228 3.41222 45.0947 3.74036 45.0947 4.14723C45.0947 4.55411 45.4228 4.88222 45.8278 4.88222C46.021 4.88222 46.1972 4.80723 46.3284 4.68536H46.3303Z" fill="#FFBC00"/>
<path fill-rule="evenodd" clip-rule="evenodd" d="M33.3437 34.4696L35.2768 41.0996C34.7518 41.1165 34.225 41.0996 33.7337 41.0153C33.3437 40.9646 32.9368 40.9309 32.53 40.9309C32.1231 40.9309 31.6825 40.9984 31.2587 41.1521L33.3437 34.4715V34.4696ZM73.3543 49.8184C73.3712 49.6309 73.4556 49.4959 73.5756 49.4115C73.6937 49.3271 73.8475 49.2934 74.0162 49.2934H74.6443C75.5087 49.3103 76.12 49.5821 76.51 50.0734C76.9 50.5815 77.0875 51.2603 77.0687 52.0909C77.0856 53.0228 76.8999 53.7015 76.5268 54.159C76.1537 54.6165 75.4918 54.8546 74.56 54.8715C74.3218 54.8884 74.0687 54.8884 73.78 54.8715H73.3562V49.8184H73.3543ZM73.9975 60.5003C73.8793 60.5003 73.7425 60.4496 73.5906 60.3653C73.4387 60.2809 73.3525 60.1609 73.3525 59.9753V55.2784H74.065C74.5225 55.2784 74.9462 55.329 75.3024 55.4303C75.6587 55.5484 75.9643 55.7528 76.2006 56.0753C76.4218 56.3978 76.5906 56.8721 76.675 57.5003C76.6918 57.534 76.6918 57.5678 76.6918 57.6015C76.81 58.6365 76.9975 59.3996 77.2506 59.8909C77.4887 60.3821 77.9969 60.6371 78.76 60.654C79.0487 60.654 79.3018 60.5696 79.5062 60.4159C79.6918 60.264 79.795 59.9753 79.8118 59.5853H79.7612C79.7443 59.7371 79.6937 59.8403 79.6093 59.9078C79.5249 59.9753 79.4406 60.009 79.3543 60.009C78.9981 59.9753 78.76 59.754 78.6081 59.3471C78.4562 58.9403 78.3531 58.4659 78.2687 57.9053C78.1843 57.414 78.0812 56.9734 77.9631 56.5496C77.7775 56.0584 77.5056 55.719 77.1493 55.5146C76.7931 55.329 76.3862 55.209 75.9456 55.1584C76.7594 55.0065 77.4043 54.6671 77.8787 54.1571C78.3362 53.6659 78.5744 52.9703 78.5744 52.089C78.5575 51.2753 78.3887 50.6303 78.0662 50.1559C77.7437 49.6984 77.2862 49.359 76.7106 49.1715C76.1349 48.9859 75.49 48.8828 74.7606 48.8828H71.2169V48.9503C71.335 48.9503 71.4887 49.0009 71.6406 49.1021C71.7924 49.2034 71.8618 49.3234 71.8618 49.4753V59.9715C71.8618 60.1234 71.7943 60.2434 71.6406 60.3446C71.4887 60.4459 71.335 60.4965 71.2169 60.4965V60.564H73.9975V60.4965V60.5003ZM70.5381 57.2959H70.4875C70.3862 58.2971 70.1143 59.0246 69.6568 59.484C69.1993 59.9415 68.4868 60.1796 67.4856 60.1796H65.8749C65.7062 60.1796 65.5524 60.129 65.4174 60.0446C65.2825 59.9603 65.2131 59.8234 65.2131 59.604V54.9409H66.655C66.91 54.9578 67.1631 55.0084 67.4518 55.0928C67.7237 55.194 67.96 55.3478 68.1644 55.5334C68.3687 55.719 68.47 55.974 68.47 56.2628H68.5206V53.2271H68.47C68.3012 54.0578 67.69 54.4984 66.6381 54.549H65.2131V49.9196C65.2131 49.6984 65.2806 49.5465 65.4006 49.4453C65.5187 49.3609 65.6724 49.3103 65.8749 49.3103H67.3C68.3012 49.3103 69.0118 49.5146 69.4712 49.9384C69.9118 50.3621 70.1837 51.0746 70.2849 52.0759H70.3525L70.0974 48.9053H63.0606V48.9728C63.1787 48.9728 63.3324 49.0234 63.4843 49.1246C63.6362 49.2259 63.7056 49.3459 63.7056 49.4978V59.994C63.7056 60.1459 63.6381 60.2659 63.4843 60.3671C63.3324 60.4684 63.1787 60.519 63.0606 60.519V60.5696H70.2849L70.54 57.2978L70.5381 57.2959ZM54.8199 49.9196C55.5493 51.0896 56.2618 52.2765 56.9912 53.4634C58.4331 55.8203 59.8899 58.194 61.3318 60.5678H61.7387V49.4771C61.7387 49.2915 61.8062 49.1546 61.96 49.0703C62.1118 48.9859 62.2487 48.9521 62.3837 48.9521V48.8846H60.6887V48.9521C60.8068 48.9521 60.9437 49.0028 61.0956 49.0871C61.2474 49.1884 61.3168 49.3253 61.3337 49.4771C61.3674 51.8003 61.3675 54.1234 61.3506 56.4803C61.3506 56.8871 61.3506 57.294 61.3337 57.684L55.9581 48.8828H53.77V48.9503C53.8881 48.9503 54.025 49.0009 54.1768 49.0853C54.3287 49.1865 54.3981 49.3234 54.415 49.4753C54.4487 51.7984 54.4487 54.1215 54.4319 56.4784C54.415 57.6484 54.415 58.8015 54.415 59.9715C54.415 60.1234 54.3475 60.2434 54.1937 60.3446C54.0419 60.4459 53.905 60.4965 53.77 60.4965V60.564H55.465V60.4965C55.33 60.4965 55.1931 60.4459 55.0412 60.3615C54.8894 60.2771 54.8199 60.1571 54.8199 59.9715V49.9159V49.9196ZM45.5275 49.9196C46.2569 51.0896 46.9693 52.2765 47.6987 53.4634C49.1406 55.8203 50.5975 58.194 52.0394 60.5678H52.4462V49.4771C52.4462 49.2915 52.5137 49.1546 52.6674 49.0703C52.8193 48.9859 52.9562 48.9521 53.0912 48.9521V48.8846H51.3962V48.9521C51.5143 48.9521 51.6512 49.0028 51.8031 49.0871C51.955 49.1884 52.0244 49.3253 52.0412 49.4771C52.075 51.8003 52.0749 54.1234 52.0581 56.4803C52.0581 56.8871 52.0581 57.294 52.0412 57.684L46.6656 48.8828H44.4775V48.9503C44.5956 48.9503 44.7324 49.0009 44.8843 49.0853C45.0362 49.1865 45.1056 49.3234 45.1225 49.4753C45.1562 51.7984 45.1562 54.1215 45.1393 56.4784C45.1225 57.6484 45.1225 58.8015 45.1225 59.9715C45.1225 60.1234 45.055 60.2434 44.9012 60.3446C44.7493 60.4459 44.6125 60.4965 44.4775 60.4965V60.564H46.1725V60.4965C46.0375 60.4965 45.9006 60.4459 45.7487 60.3615C45.5968 60.2771 45.5275 60.1571 45.5275 59.9715V49.9159V49.9196ZM41.0162 60.5171V60.5678H43.7968V60.5003C43.6787 60.5003 43.5418 60.4496 43.39 60.3653C43.2381 60.2809 43.1518 60.1609 43.1518 59.9753V49.479C43.1518 49.2934 43.2362 49.1565 43.39 49.0721C43.5437 48.9878 43.6787 48.954 43.7968 48.954V48.9034H41.0162V48.954C41.1343 48.954 41.2881 49.0046 41.44 49.1059C41.5918 49.2071 41.6612 49.3271 41.6612 49.479V59.9753C41.6612 60.1271 41.5937 60.2471 41.44 60.3484C41.2881 60.4665 41.1343 60.5171 41.0162 60.5171ZM40.3393 48.9353V48.8678H38.2712V48.9353C38.6612 48.9353 38.8993 49.0028 38.9837 49.1565C39.0681 49.3084 39.0681 49.5296 38.9837 49.8353L35.9818 59.8403C35.4906 58.1453 34.9975 56.4315 34.5062 54.6859L34.405 54.3465L35.8806 49.7509C36.0324 49.2259 36.3719 48.954 36.8987 48.9371V48.8696H35.0837V48.9371C35.2524 48.9203 35.3894 48.954 35.4906 49.0384C35.575 49.1228 35.5918 49.2934 35.5243 49.5465L34.2193 53.6509C33.8293 52.2596 33.4225 50.8871 33.0325 49.5296C32.9818 49.3084 32.9818 49.1565 33.0662 49.0721C33.1506 48.9878 33.2706 48.9371 33.4562 48.9371V48.8696H30.8781V48.9371C31.03 48.9371 31.1668 48.9709 31.2512 49.0553C31.3356 49.1396 31.3862 49.2765 31.4368 49.4284L33.4037 56.1765L32.2169 59.8384L30.6231 54.6503C30.0981 52.9384 29.5712 51.2415 29.0462 49.5296C28.9956 49.3084 29.0125 49.1565 29.1137 49.0721C29.215 48.9878 29.3519 48.9371 29.5375 48.9371V48.8696H26.7568V48.9371C27.0793 48.9371 27.3156 49.1059 27.4525 49.4284L30.6737 59.9078C30.7074 60.0765 30.6568 60.2134 30.505 60.3146C30.3531 60.4328 30.1993 60.4834 30.0475 60.4834V60.534H33.1843V60.4834C33.0831 60.4834 32.9631 60.4496 32.845 60.3653C32.71 60.2978 32.6237 60.1965 32.5731 60.0765L33.6081 56.8721L34.4893 59.9078C34.5231 60.0765 34.4556 60.2134 34.3037 60.3146C34.1518 60.4328 33.9981 60.4834 33.8462 60.4834V60.534H36.9831V60.4834C36.6606 60.4834 36.4244 60.3484 36.2875 60.0765L39.4243 49.7659C39.5425 49.2746 39.8481 49.0028 40.3393 48.9353ZM70.8024 34.7415C70.8024 34.5203 70.87 34.3515 71.0068 34.2671C71.1418 34.1828 71.2956 34.149 71.4643 34.149H71.8881C72.8893 34.1996 73.6862 34.4884 74.3124 35.0134C74.9237 35.5384 75.3643 36.2171 75.6512 37.0309C75.94 37.8615 76.0581 38.7259 76.0412 39.6259C76.0244 41.0678 75.6343 42.3053 74.8881 43.3571C74.1418 44.4259 73.0056 44.9678 71.4624 45.0184C71.2937 45.0184 71.14 44.9678 71.005 44.8834C70.87 44.799 70.8006 44.6621 70.8006 44.4428C70.8174 41.2046 70.8174 37.9815 70.8006 34.7434L70.8024 34.7415ZM69.2931 34.3346V44.8309C69.2931 44.9828 69.2256 45.1028 69.0718 45.204C68.9199 45.3221 68.7662 45.3728 68.6481 45.3728V45.4234H71.6499C73.4312 45.4234 74.8543 44.9153 75.9231 43.8803C76.9918 42.8621 77.5337 41.4559 77.5337 39.6409C77.5337 37.6065 77.0256 36.114 76.0243 35.1634C75.0062 34.2315 73.5831 33.7553 71.7512 33.7553H68.6481V33.8059C68.7662 33.8059 68.9199 33.8565 69.0718 33.9578C69.2237 34.059 69.2931 34.179 69.2931 34.3309V34.3346ZM61.7124 34.674C61.7293 34.4884 61.8137 34.3515 61.9337 34.2671C62.0519 34.1828 62.2056 34.149 62.3743 34.149H63.0025C63.8668 34.1659 64.4781 34.4378 64.8681 34.929C65.2581 35.4371 65.4437 36.1159 65.4268 36.9465C65.4437 37.8784 65.2581 38.5571 64.885 39.0146C64.5119 39.4721 63.85 39.7103 62.9181 39.7271C62.68 39.744 62.4268 39.744 62.1381 39.7271H61.7143V34.674H61.7124ZM62.3575 45.3559C62.2394 45.3559 62.1025 45.3053 61.9506 45.2209C61.7987 45.1365 61.7124 45.0165 61.7124 44.8309V40.134H62.425C62.8825 40.134 63.3062 40.1846 63.6625 40.2859C64.0187 40.404 64.3244 40.6084 64.5606 40.9309C64.7819 41.2534 64.9506 41.7278 65.0349 42.3559C65.0518 42.3896 65.0518 42.4234 65.0518 42.4571C65.17 43.4921 65.3575 44.2553 65.6106 44.7465C65.8487 45.2378 66.3568 45.4928 67.12 45.5096C67.4087 45.5096 67.6618 45.4253 67.8662 45.2715C68.0518 45.1196 68.1549 44.8309 68.1718 44.4409H68.1212C68.1044 44.5928 68.0537 44.6959 67.9693 44.7634C67.885 44.8309 67.8006 44.8646 67.7143 44.8646C67.3581 44.8309 67.12 44.6096 66.9681 44.2028C66.8162 43.7959 66.7131 43.3215 66.6287 42.7609C66.5443 42.2696 66.4431 41.829 66.3231 41.4053C66.1375 40.914 65.8656 40.5746 65.5093 40.3703C65.1531 40.1846 64.7462 40.0646 64.3056 40.014C65.1193 39.8621 65.7643 39.5228 66.2387 39.0128C66.6962 38.5215 66.9343 37.8259 66.9343 36.9446C66.9175 36.1309 66.7487 35.4859 66.4262 35.0115C66.1037 34.554 65.6462 34.2146 65.0706 34.0271C64.495 33.8396 63.8499 33.7384 63.1206 33.7384H59.5768V33.8059C59.695 33.8059 59.8487 33.8565 60.0006 33.9578C60.1525 34.059 60.2218 34.179 60.2218 34.3309V44.8271C60.2218 44.979 60.1543 45.099 60.0006 45.2003C59.8468 45.3015 59.695 45.3521 59.5768 45.3521V45.4196H62.3575V45.3521V45.3559ZM53.6406 34.4696L55.5737 41.0996C55.0487 41.1165 54.5218 41.0996 54.0306 41.0153C53.6406 40.9646 53.2337 40.9309 52.8268 40.9309C52.42 40.9309 51.9793 40.9984 51.5556 41.1521L53.6406 34.4715V34.4696ZM50.0294 44.7278C49.9787 44.8965 49.8774 45.0334 49.7574 45.1515C49.6224 45.2696 49.4687 45.3559 49.2831 45.3728V45.4234H51.0812V45.3728C50.8956 45.3559 50.7419 45.3053 50.59 45.204C50.4381 45.1028 50.3856 44.949 50.4381 44.7634L51.3869 41.7278C51.7262 41.4728 52.2174 41.3546 52.8456 41.3715C53.4737 41.3884 54.0831 41.4559 54.6943 41.5403C55.1181 41.6078 55.4575 41.6584 55.7462 41.6753C55.9675 42.4215 56.1868 43.2015 56.425 43.9984C56.5093 44.2534 56.5768 44.5234 56.6462 44.7784C56.6968 44.9996 56.6631 45.1515 56.5112 45.2359C56.3593 45.3203 56.1887 45.3709 56.0031 45.3709V45.4215H58.9374V45.3709C58.6149 45.3709 58.3787 45.2021 58.2587 44.8796L57.2574 41.4878C57.7487 41.3696 58.0881 41.1484 58.2587 40.7921C58.4275 40.4359 58.4444 40.0965 58.3262 39.7571C58.2081 39.4178 57.9362 39.2153 57.5125 39.1628C57.5968 39.8246 57.4112 40.2821 56.9875 40.5353L55.2062 34.4134C55.1725 34.2278 55.24 34.0909 55.3918 33.9728C55.5437 33.8715 55.6806 33.8209 55.8325 33.8209V33.7534H52.6956V33.8209C52.8137 33.8209 52.9506 33.8715 53.1025 33.9559C53.2543 34.0403 53.3068 34.1603 53.2712 34.3121L50.0331 44.724L50.0294 44.7278ZM50.8937 33.7909C50.4025 33.8584 50.0969 34.1303 49.9787 34.6215L46.8419 44.9321C46.9769 45.204 47.215 45.339 47.5375 45.339V45.3896H44.4006V45.339C44.5525 45.339 44.7062 45.2884 44.8581 45.1703C45.01 45.069 45.0793 44.9321 45.0456 44.7634L44.1644 41.7278L43.1293 44.9321C43.18 45.0503 43.2643 45.1534 43.4012 45.2209C43.5193 45.3053 43.6394 45.339 43.7406 45.339V45.3896H40.6037V45.339C40.7556 45.339 40.9093 45.2884 41.0612 45.1703C41.2131 45.069 41.2656 44.9321 41.2299 44.7634L38.0087 34.284C37.8737 33.9615 37.6356 33.7928 37.3131 33.7928V33.7253H40.0937V33.7928C39.9062 33.7928 39.7712 33.8434 39.67 33.9278C39.5687 34.0121 39.5518 34.1659 39.6025 34.3853C40.1275 36.0971 40.6543 37.794 41.1793 39.5059L42.7731 44.694L43.96 41.0321L41.9931 34.284C41.9425 34.1321 41.8918 33.9953 41.8075 33.9109C41.7231 33.8265 41.5862 33.7928 41.4343 33.7928V33.7253H44.0125V33.7928C43.8268 33.7928 43.7068 33.8434 43.6225 33.9278C43.5381 34.0121 43.5381 34.1659 43.5887 34.3853C43.9787 35.7428 44.3856 37.1153 44.7756 38.5065L46.0806 34.4021C46.1481 34.1471 46.1312 33.9784 46.0468 33.894C45.9456 33.8096 45.8087 33.7759 45.64 33.7928V33.7253H47.4549V33.7928C46.9299 33.8096 46.5906 34.0815 46.4368 34.6065L44.9612 39.2021L45.0624 39.5415C45.5537 41.2871 46.0468 43.0009 46.5381 44.6959L49.54 34.6909C49.6243 34.3853 49.6243 34.1659 49.54 34.0121C49.4556 33.8603 49.2175 33.7909 48.8275 33.7909V33.7234H50.8956V33.7909H50.8937ZM29.7325 44.7278C29.6819 44.8965 29.5806 45.0334 29.4606 45.1515C29.3256 45.2696 29.1718 45.3559 28.9862 45.3728V45.4234H30.7843V45.3728C30.5987 45.3559 30.445 45.3053 30.2931 45.204C30.1412 45.1028 30.0887 44.949 30.1412 44.7634L31.09 41.7278C31.4294 41.4728 31.9206 41.3546 32.5487 41.3715C33.1768 41.3884 33.7862 41.4559 34.3975 41.5403C34.8212 41.6078 35.1606 41.6584 35.4494 41.6753C35.6706 42.4215 35.89 43.2015 36.1281 43.9984C36.2125 44.2534 36.2799 44.5234 36.3493 44.7784C36.3999 44.9996 36.3662 45.1515 36.2143 45.2359C36.0625 45.3203 35.8918 45.3709 35.7062 45.3709V45.4215H38.6406V45.3709C38.3181 45.3709 38.0818 45.2021 37.9618 44.8796L36.9606 41.4878C37.4518 41.3696 37.7912 41.1484 37.9618 40.7921C38.1306 40.4359 38.1475 40.0965 38.0294 39.7571C37.9112 39.4178 37.6393 39.2153 37.2156 39.1628C37.3 39.8246 37.1143 40.2821 36.6906 40.5353L34.9093 34.4134C34.8756 34.2278 34.9431 34.0909 35.095 33.9728C35.2468 33.8715 35.3837 33.8209 35.5356 33.8209V33.7534H32.3987V33.8209C32.5169 33.8209 32.6537 33.8715 32.8056 33.9559C32.9575 34.0403 33.0099 34.1603 32.9743 34.3121L29.7362 44.724L29.7325 44.7278Z" fill="#FFBC00"/>
</svg>
