<svg width="49" height="48" viewBox="0 0 49 48" fill="none" xmlns="http://www.w3.org/2000/svg">
<path d="M2.33398 39.7434V35.4866C2.33398 35.4866 4.73398 33.6866 8.33398 33.6866C11.934 33.6866 14.334 35.4866 14.334 35.4866V39.7434" stroke="#FFBC00" stroke-width="2"/>
<path d="M34.334 39.7434V35.4866C34.334 35.4866 36.734 33.6866 40.334 33.6866C43.934 33.6866 46.334 35.4866 46.334 35.4866V39.7434" stroke="#FFBC00" stroke-width="2"/>
<path d="M4.33398 23.656C4.33398 24.1813 4.43745 24.7014 4.63847 25.1867C4.83949 25.672 5.13412 26.113 5.50556 26.4844C5.87699 26.8559 6.31795 27.1505 6.80325 27.3515C7.28855 27.5525 7.8087 27.656 8.33398 27.656C8.85927 27.656 9.37942 27.5525 9.86472 27.3515C10.35 27.1505 10.791 26.8559 11.1624 26.4844C11.5338 26.113 11.8285 25.672 12.0295 25.1867C12.2305 24.7014 12.334 24.1813 12.334 23.656C12.334 22.5951 11.9126 21.5777 11.1624 20.8276C10.4123 20.0774 9.39485 19.656 8.33398 19.656C7.27312 19.656 6.2557 20.0774 5.50556 20.8276C4.75541 21.5777 4.33398 22.5951 4.33398 23.656Z" stroke="#FFBC00" stroke-width="2"/>
<path d="M36.334 23.656C36.334 24.7169 36.7554 25.7343 37.5056 26.4844C38.2557 27.2346 39.2731 27.656 40.334 27.656C41.3948 27.656 42.4123 27.2346 43.1624 26.4844C43.9126 25.7343 44.334 24.7169 44.334 23.656C44.334 22.5951 43.9126 21.5777 43.1624 20.8276C42.4123 20.0774 41.3948 19.656 40.334 19.656C39.2731 19.656 38.2557 20.0774 37.5056 20.8276C36.7554 21.5777 36.334 22.5951 36.334 23.656Z" stroke="#FFBC00" stroke-width="2"/>
<path d="M14.334 39.7162L14.334 32.6564C14.334 32.6564 18.334 29.6564 24.334 29.6564C30.3338 29.6564 34.3338 32.6564 34.3338 32.6564V39.7162" stroke="#FFBC00" stroke-width="2"/>
<path d="M18.9902 18.344C18.9902 19.7613 19.5533 21.1206 20.5555 22.1228C21.5577 23.125 22.9169 23.688 24.3342 23.688C25.7516 23.688 27.1108 23.125 28.113 22.1228C29.1152 21.1206 29.6782 19.7613 29.6782 18.344C29.6782 16.9267 29.1152 15.5674 28.113 14.5652C27.1108 13.563 25.7516 13 24.3342 13C22.9169 13 21.5577 13.563 20.5555 14.5652C19.5533 15.5674 18.9902 16.9267 18.9902 18.344Z" stroke="#FFBC00" stroke-width="2"/>
</svg>
