<svg width="16" height="17" viewBox="0 0 16 17" fill="none" xmlns="http://www.w3.org/2000/svg">
<path d="M11.334 5.16602L4.66602 11.834" stroke="white"/>
<path d="M4.66602 5.16602L11.334 11.834" stroke="white"/>
<path d="M0.666748 8.5C0.666748 10.4449 1.43937 12.3102 2.81463 13.6855C4.1899 15.0607 6.05516 15.8333 8.00008 15.8333C9.94501 15.8333 11.8103 15.0607 13.1855 13.6855C14.5608 12.3102 15.3334 10.4449 15.3334 8.5C15.3334 6.55508 14.5608 4.68982 13.1855 3.31455C11.8103 1.93929 9.94501 1.16667 8.00008 1.16667C6.05516 1.16667 4.1899 1.93929 2.81463 3.31455C1.43937 4.68982 0.666748 6.55508 0.666748 8.5Z" stroke="white"/>
</svg>
