<svg width="17" height="17" viewBox="0 0 17 17" fill="none" xmlns="http://www.w3.org/2000/svg">
<path d="M1.66663 7.01272C1.66663 8.56194 2.28205 10.0477 3.37751 11.1432C4.47298 12.2386 5.95874 12.8541 7.50796 12.8541C9.05718 12.8541 10.5429 12.2386 11.6384 11.1432C12.7339 10.0477 13.3493 8.56194 13.3493 7.01272C13.3493 5.4635 12.7339 3.97774 11.6384 2.88227C10.5429 1.78681 9.05718 1.17139 7.50796 1.17139C5.95874 1.17139 4.47298 1.78681 3.37751 2.88227C2.28205 3.97774 1.66663 5.4635 1.66663 7.01272Z" stroke="white" stroke-width="1.5"/>
<path d="M13.3492 7.0127V12.4413C13.3492 14.2822 14.8416 15.7746 16.6826 15.7746H17" stroke="white" stroke-width="1.5"/>
<path d="M7.3252 9.93423V9.56836H7.69107V9.93423H7.3252Z" stroke="white" stroke-width="1.5"/>
<path d="M7.3252 4.45804V4.09216H7.69107V4.45804H7.3252Z" stroke="white" stroke-width="1.5"/>
<path d="M4.58716 7.1963V6.83044H4.95302V7.1963H4.58716Z" stroke="white" stroke-width="1.5"/>
<path d="M10.0635 7.1963V6.83044H10.4293V7.1963H10.0635Z" stroke="white" stroke-width="1.5"/>
</svg>
