<svg width="17" height="18" viewBox="0 0 17 18" fill="none" xmlns="http://www.w3.org/2000/svg">
<path d="M1.66699 7.51266C1.66699 9.06188 2.28242 10.5476 3.37788 11.6431C4.47334 12.7386 5.95911 13.354 7.50833 13.354C9.05754 13.354 10.5433 12.7386 11.6388 11.6431C12.7342 10.5476 13.3497 9.06188 13.3497 7.51266C13.3497 5.96344 12.7342 4.47768 11.6388 3.38221C10.5433 2.28675 9.05754 1.67133 7.50833 1.67133C5.95911 1.67133 4.47334 2.28675 3.37788 3.38221C2.28242 4.47768 1.66699 5.96344 1.66699 7.51266Z" stroke="#FFBC00" stroke-width="1.5"/>
<path d="M13.3496 7.5127V12.9413C13.3496 14.7822 14.842 16.2746 16.6829 16.2746H17.0004" stroke="#FFBC00" stroke-width="1.5"/>
<path d="M7.3252 10.4342V10.0683H7.69107V10.4342H7.3252Z" stroke="#FFBC00" stroke-width="1.5"/>
<path d="M7.3252 4.95798V4.5921H7.69107V4.95798H7.3252Z" stroke="#FFBC00" stroke-width="1.5"/>
<path d="M4.58789 7.69624V7.33038H4.95376V7.69624H4.58789Z" stroke="#FFBC00" stroke-width="1.5"/>
<path d="M10.0635 7.69624V7.33038H10.4293V7.69624H10.0635Z" stroke="#FFBC00" stroke-width="1.5"/>
</svg>
