<svg width="24" height="24" viewBox="0 0 24 24" fill="none" xmlns="http://www.w3.org/2000/svg">
<path d="M6 17.5997C3.57111 18.1471 2 19.0185 2 20C2 21.6568 6.47715 23 12 23C17.5228 23 22 21.6568 22 20C22 19.0185 20.4289 18.1471 18 17.5997" stroke="#FFBC00" stroke-width="2"/>
<path d="M12.5 8.5H11.5V7.5H12.5V8.5Z" stroke="#FFBC00" stroke-width="2"/>
<path d="M5 8.03448C5 12.7241 12 18 12 18C12 18 19 12.7241 19 8.03448C19 4.14945 15.866 1 12 1C8.13401 1 5 4.14945 5 8.03448Z" stroke="#FFBC00" stroke-width="2"/>
</svg>
