<svg width="16" height="17" viewBox="0 0 16 17" fill="none" xmlns="http://www.w3.org/2000/svg">
<path d="M4.6665 8.5H11.3332" stroke="white"/>
<path d="M4.6665 5.83333H11.3332" stroke="white"/>
<path d="M4.6665 11.1667H11.3332" stroke="white"/>
<path d="M0.666504 8.5C0.666504 10.4449 1.43912 12.3102 2.81439 13.6855C4.18966 15.0607 6.05492 15.8333 7.99984 15.8333C9.94477 15.8333 11.81 15.0607 13.1853 13.6855C14.5606 12.3102 15.3332 10.4449 15.3332 8.5C15.3332 6.55508 14.5606 4.68982 13.1853 3.31455C11.81 1.93928 9.94477 1.16666 7.99984 1.16666C6.05492 1.16666 4.18966 1.93928 2.81439 3.31455C1.43912 4.68982 0.666504 6.55508 0.666504 8.5Z" stroke="white"/>
</svg>
