<svg width="32" height="32" viewBox="0 0 32 32" fill="none" xmlns="http://www.w3.org/2000/svg">
<path d="M1.3335 26.4955V23.6576C1.3335 23.6576 2.9335 22.4576 5.3335 22.4576C7.7335 22.4576 9.3335 23.6576 9.3335 23.6576V26.4955" stroke="#FFBC00" stroke-width="2"/>
<path d="M22.667 26.4955V23.6576C22.667 23.6576 24.267 22.4576 26.667 22.4576C29.067 22.4576 30.667 23.6576 30.667 23.6576V26.4955" stroke="#FFBC00" stroke-width="2"/>
<path d="M2.66699 15.7707C2.66699 16.1209 2.73597 16.4676 2.86998 16.7912C3.00399 17.1147 3.20042 17.4087 3.44804 17.6563C3.69566 17.9039 3.98963 18.1003 4.31317 18.2344C4.6367 18.3684 4.98347 18.4373 5.33366 18.4373C5.68385 18.4373 6.03061 18.3684 6.35415 18.2344C6.67768 18.1003 6.97165 17.9039 7.21928 17.6563C7.4669 17.4087 7.66332 17.1147 7.79734 16.7912C7.93135 16.4676 8.00033 16.1209 8.00033 15.7707C8.00033 15.0634 7.71937 14.3851 7.21928 13.8851C6.71918 13.385 6.0409 13.104 5.33366 13.104C4.62641 13.104 3.94814 13.385 3.44804 13.8851C2.94794 14.3851 2.66699 15.0634 2.66699 15.7707Z" stroke="#FFBC00" stroke-width="2"/>
<path d="M24 15.7707C24 16.4779 24.281 17.1562 24.781 17.6563C25.2811 18.1564 25.9594 18.4373 26.6667 18.4373C27.3739 18.4373 28.0522 18.1564 28.5523 17.6563C29.0524 17.1562 29.3333 16.4779 29.3333 15.7707C29.3333 15.0634 29.0524 14.3851 28.5523 13.8851C28.0522 13.385 27.3739 13.104 26.6667 13.104C25.9594 13.104 25.2811 13.385 24.781 13.8851C24.281 14.3851 24 15.0634 24 15.7707Z" stroke="#FFBC00" stroke-width="2"/>
<path d="M9.3335 26.4774L9.33354 21.7709C9.33354 21.7709 12.0002 19.7709 16.0002 19.7709C20 19.7709 22.6667 21.7709 22.6667 21.7709V26.4774" stroke="#FFBC00" stroke-width="2"/>
<path d="M12.4375 12.2293C12.4375 13.1742 12.8129 14.0803 13.481 14.7485C14.1491 15.4166 15.0553 15.792 16.0002 15.792C16.945 15.792 17.8512 15.4166 18.5194 14.7485C19.1875 14.0803 19.5628 13.1742 19.5628 12.2293C19.5628 11.2844 19.1875 10.3782 18.5194 9.71011C17.8512 9.04198 16.945 8.66663 16.0002 8.66663C15.0553 8.66663 14.1491 9.04198 13.481 9.71011C12.8129 10.3782 12.4375 11.2844 12.4375 12.2293Z" stroke="#FFBC00" stroke-width="2"/>
</svg>
