<svg width="24" height="24" viewBox="0 0 24 24" fill="none" xmlns="http://www.w3.org/2000/svg">
<path d="M16.9717 12.5C16.9717 9.47807 14.5219 7.02832 11.5 7.02832" stroke="#FFBC00" stroke-width="2"/>
<path d="M22 12.5C22 6.70101 17.299 2 11.5 2" stroke="#FFBC00" stroke-width="2"/>
<path d="M4.36855 5.54242L2.0791 5.8167C2.22269 8.40878 2.95346 10.9744 4.27142 13.2972C5.01459 14.607 5.94446 15.8396 7.06104 16.9561C8.17761 18.0727 9.41019 19.0026 10.72 19.7458C13.0428 21.0637 15.6084 21.7945 18.2005 21.9381L18.4748 19.6486" stroke="#FFBC00" stroke-width="2"/>
<path d="M10.7197 19.7458L13.1063 15.747L18.7488 17.3592L18.4745 19.6486" stroke="#FFBC00" stroke-width="2"/>
<path d="M4.27148 13.2972L8.27021 10.9106L6.65807 5.26813L4.36862 5.54241" stroke="#FFBC00" stroke-width="2"/>
</svg>
