<svg width="16" height="17" viewBox="0 0 16 17" fill="none" xmlns="http://www.w3.org/2000/svg">
<path d="M4 15.8333H12L13 7.83325H3L4 15.8333Z" stroke="white" stroke-width="1.5"/>
<path d="M6.33337 7.83325V15.8333" stroke="white" stroke-width="1.5"/>
<path d="M9.66663 7.83325V15.8333" stroke="white" stroke-width="1.5"/>
<path d="M12 7.83329H4C2.89543 7.83329 2 6.93786 2 5.83329C2 4.96131 2.55803 4.21967 3.33645 3.94599C3.33438 3.90869 3.33333 3.87111 3.33333 3.83329C3.33333 2.72873 4.22877 1.83329 5.33333 1.83329C5.68977 1.83329 6.02443 1.92653 6.31425 2.08995C6.6696 1.53469 7.2918 1.16663 8 1.16663C8.7082 1.16663 9.3304 1.53469 9.68573 2.08995C9.9756 1.92653 10.3102 1.83329 10.6667 1.83329C11.7713 1.83329 12.6667 2.72873 12.6667 3.83329C12.6667 3.87111 12.6656 3.90869 12.6635 3.946C13.442 4.21967 14 4.96131 14 5.83329C14 6.93786 13.1046 7.83329 12 7.83329Z" stroke="white" stroke-width="1.5"/>
</svg>
