<svg width="24" height="24" viewBox="0 0 24 24" fill="none" xmlns="http://www.w3.org/2000/svg">
<path d="M7 15.734C3.88178 16.0296 2 16.5 2 16.5V2.5C2 2.5 6 3.5 12 3.5C18 3.5 22 2.5 22 2.5V16.5C22 16.5 20.1182 16.0296 17 15.734" stroke="#FFBC00" stroke-width="2"/>
<path d="M17.5 23V20.0606C15.8006 19.3765 13.9443 19 12 19C10.0557 19 8.19944 19.3765 6.5 20.0606V23" stroke="#FFBC00" stroke-width="2"/>
<path d="M9.49902 13.501C9.49902 14.8823 10.6188 16.002 12 16.002C13.3813 16.002 14.501 14.8823 14.501 13.501C14.501 12.1197 13.3813 11 12 11C10.6188 11 9.49902 12.1197 9.49902 13.501Z" stroke="#FFBC00" stroke-width="2"/>
</svg>
